<?xml version="1.0" standalone="no"?>
<!DOCTYPE svg PUBLIC "-//W3C//DTD SVG 20010904//EN"
 "http://www.w3.org/TR/2001/REC-SVG-20010904/DTD/svg10.dtd">
<svg version="1.0" xmlns="http://www.w3.org/2000/svg"
 width="646.000000pt" height="646.000000pt" viewBox="0 0 646.000000 646.000000"
 preserveAspectRatio="xMidYMid meet">
<metadata>
Created by potrace 1.11, written by Peter Selinger 2001-2013
</metadata>
<g transform="translate(0.000000,646.000000) scale(0.100000,-0.100000)"
fill="#000000" stroke="none">
<path d="M0 3230 l0 -2340 3230 0 3230 0 0 2340 0 2340 -3230 0 -3230 0 0
-2340z m3910 1633 c-12 -21 -180 -311 -372 -645 -193 -335 -353 -608 -357
-608 -3 0 -161 269 -351 596 -190 328 -358 618 -373 645 l-29 49 752 0 752 0
-22 -37z m-2528 -553 c251 -24 473 -128 653 -305 270 -266 377 -681 269 -1051
-97 -336 -352 -603 -679 -712 -136 -46 -199 -52 -510 -52 l-295 0 0 1065 0
1065 228 0 c125 0 275 -5 334 -10z m4158 -1056 l0 -1065 -327 4 c-299 3 -335
6 -405 25 -672 190 -991 919 -670 1535 132 253 363 439 648 522 118 34 210 42
507 44 l247 1 0 -1066z m-1981 -1009 l368 -640 -373 -3 c-206 -1 -542 -1 -748
0 l-374 3 372 642 c204 353 374 641 378 640 5 -1 174 -290 377 -642z"/>
</g>
</svg>
