<svg id="Lag_1" data-name="Lag 1" xmlns="http://www.w3.org/2000/svg" xmlns:xlink="http://www.w3.org/1999/xlink" viewBox="0 0 41.58 34.65"><defs><style>.cls-1{fill:none;}.cls-2{clip-path:url(#clip-path);}.cls-3{fill:#1d1d1b;}</style><clipPath id="clip-path"><rect class="cls-1" width="41.58" height="34.65"/></clipPath></defs><g class="cls-2"><path class="cls-3" d="M41.58,17.32l-5.2,6.94-5.2-6.94h3.47A13.86,13.86,0,0,0,9.12,9.85L6.93,6.93A17.33,17.33,0,0,1,38.12,17.32ZM27.72,12.13a6.93,6.93,0,1,0-6.93,6.93,6.93,6.93,0,0,0,6.93-6.93m-6.93,8.66a10.41,10.41,0,0,0-9.64,6.5,13.85,13.85,0,0,1-4.22-10H10.4L5.2,10.39,0,17.32H3.46A17.3,17.3,0,0,0,10.4,31.18h0v3.47H31.18V31.18A10.39,10.39,0,0,0,20.79,20.79"/></g></svg>