<svg id="Lag_1" data-name="Lag 1" xmlns="http://www.w3.org/2000/svg" xmlns:xlink="http://www.w3.org/1999/xlink" viewBox="0 0 463.72 79.19"><defs><style>.cls-1{fill:none;}.cls-2{clip-path:url(#clip-path);}</style><clipPath id="clip-path"><rect class="cls-1" width="463.72" height="79.19"/></clipPath></defs><g class="cls-2"><path d="M36.7,39.59A25.46,25.46,0,0,0,11.13,14H0V65.17H11.13A25.45,25.45,0,0,0,36.7,39.59m20,8.32L38.58,79.19H74.71Zm0-16.63L74.71,0H38.58Zm19.89,8.31a25.46,25.46,0,0,0,25.58,25.58H113.3V14H102.17A25.47,25.47,0,0,0,76.59,39.59"/><path d="M454.13,57.29l9.59-24.06h-6.83l-4.84,12.92-5.24-13h-7.23l9,21.1-.53,1.3c-.85,2.07-1.91,2.72-3.57,2.72a16,16,0,0,1-2.2-.24v5.57a18.72,18.72,0,0,0,2.89.2c5,0,7.19-2.11,8.94-6.54M425.68,49a5.07,5.07,0,0,1-5-5.33,5,5,0,1,1,10,0A5.09,5.09,0,0,1,425.68,49m11.75,5.56V33.18h-6.55v3.09a7.63,7.63,0,0,0-6.62-3.61c-6.14,0-10.21,4.75-10.21,11.05s4.23,10.69,10.29,10.69a7.65,7.65,0,0,0,6.46-3.25v3.62c0,3-1.59,4.67-4.76,4.67-2.8,0-4.35-1.3-4.63-3.21h-6.59c.37,4.68,4.07,8,11.06,8,7.76,0,11.55-3.5,11.55-9.64M400.27,49c-3,0-5-2.4-5-5.33s2-5.36,5-5.36a5.05,5.05,0,0,1,5,5.36,5,5,0,0,1-5,5.33m0,5.73c7.32,0,11.67-5.08,11.67-11.06s-4.35-11.1-11.67-11.1-11.62,5.09-11.62,11.1S393,54.77,400.27,54.77m-21.46-.57h6.63V23.71h-6.63ZM363.94,49c-3,0-5-2.4-5-5.33s1.95-5.36,5-5.36a5.06,5.06,0,0,1,5,5.36,5,5,0,0,1-5,5.33m0,5.73c7.31,0,11.66-5.08,11.66-11.06s-4.35-11.1-11.66-11.1-11.63,5.09-11.63,11.1,4.39,11.06,11.63,11.06m-35.77-.57h6.62v-11c0-3,1.38-4.87,4.07-4.87s3.74,1.74,3.74,4.26V54.2h6.62V42.13c0-5.94-2.6-9.47-7.92-9.47a7.07,7.07,0,0,0-6.59,3.57v-3h-6.54Zm-25.24,0h6.62v-11c0-3,1.38-4.87,4.07-4.87s3.74,1.74,3.74,4.26V54.2H324V42.13c0-5.94-2.6-9.47-7.93-9.47a7,7,0,0,0-6.5,3.57V23.71h-6.62Zm-3-12.93c-.81-4.87-4.43-8.66-10.77-8.66-7.12,0-11.42,5.09-11.42,11.1s4.3,11.06,11.42,11.06c6.34,0,10-3.78,10.77-8.66h-6.67a4.08,4.08,0,0,1-4.06,3c-2.93,0-4.8-2.48-4.8-5.45s1.87-5.49,4.8-5.49a4,4,0,0,1,4,3.05Zm-35.2-3.94a4.18,4.18,0,0,1,4.39,4.07h-8.9a4.25,4.25,0,0,1,4.51-4.07m10.36,10.49h-6.3a4.16,4.16,0,0,1-4,2.15c-3,0-4.51-1.91-4.63-4.55h15.28a19.32,19.32,0,0,0,.16-2.48c0-5.57-3.86-10.33-10.81-10.33-7.15,0-11.06,5-11.06,11.1s4,11.06,11.14,11.06c5.73,0,9.15-3.05,10.2-7M236.63,33.18v5.21h3.29v8.53c0,5.77,2.77,7.6,7.77,7.6a24.51,24.51,0,0,0,4.14-.32V48.87a21.15,21.15,0,0,1-2.64.25c-1.71,0-2.64-.57-2.64-2.69v-8h4.8V33.18h-4.8V27h-6.63v6.21Zm-9,17.16a4.23,4.23,0,1,0,4.23-4.23,4.22,4.22,0,0,0-4.23,4.23m-16.22,4.39c8.42,0,13-5,13.9-11.47h-7a6.65,6.65,0,0,1-6.78,5.33c-5.25,0-8-4.19-8-9s2.72-9,8-9a6.65,6.65,0,0,1,6.78,5.33h7c-.89-6.42-5.48-11.46-13.9-11.46-9.39,0-14.83,7.15-14.83,15.16S202,54.73,211.43,54.73m-22.8-.53h8.05l-9.47-14.72,9.39-14.55h-7.89l-5.81,9.64L177,24.93h-8l9.43,14.55L168.92,54.2h7.84l6-9.76ZM153.71,30.87c5.41,0,8.5,4.22,8.5,8.7s-3.09,8.69-8.5,8.69h-3.53V30.87ZM143.31,54.2H154c9.76,0,15.2-7.16,15.2-14.63S163.75,24.93,154,24.93H143.31Z"/></g></svg>