<svg id="IoT-suc-factor-black" xmlns="http://www.w3.org/2000/svg" width="213" height="222" viewBox="0 0 213 222">
  <path id="Polygon_1" data-name="Polygon 1" d="M59.25,0,79,34,59.25,68H19.75L0,34,19.75,0Z" transform="translate(67)"/>
  <path id="Polygon_2" data-name="Polygon 2" d="M59.25,0,79,34,59.25,68H19.75L0,34,19.75,0Z" transform="translate(134 118)"/>
  <path id="Polygon_3" data-name="Polygon 3" d="M59.25,0,79,34,59.25,68H19.75L0,34,19.75,0Z" transform="translate(134 41)"/>
  <path id="Polygon_7" data-name="Polygon 7" d="M59.25,0,79,34,59.25,68H19.75L0,34,19.75,0Z" transform="translate(66 78)" fill="#ffed00"/>
  <path id="Polygon_6" data-name="Polygon 6" d="M59.25,0,79,34,59.25,68H19.75L0,34,19.75,0Z" transform="translate(67 154)"/>
  <path id="Polygon_5" data-name="Polygon 5" d="M59.25,0,79,34,59.25,68H19.75L0,34,19.75,0Z" transform="translate(0 118)"/>
  <path id="Polygon_4" data-name="Polygon 4" d="M59.25,0,79,34,59.25,68H19.75L0,34,19.75,0Z" transform="translate(0 41)"/>
  <text id="IoT_critical_success_factors" data-name="IoT critical 
success 
factors" transform="translate(107 103)" fill="#707070" font-size="11" font-family="GTWalsheimProBold, GT Walsheim Pro"><tspan x="-29.275" y="0">IoT critical </tspan><tspan x="-22.489" y="15">success </tspan><tspan x="-19.102" y="30">factors</tspan></text>
  <text id="Business_benefits" data-name="Business 
benefits" transform="translate(107 30)" fill="#fff" font-size="10" font-family="GTWalsheimProRegular, GT Walsheim Pro"><tspan x="-20.481" y="0">Business </tspan><tspan x="-17.971" y="13">benefits</tspan></text>
  <text id="Strategic_alignment" data-name="Strategic
alignment" transform="translate(174 71)" fill="#fff" font-size="11" font-family="GTWalsheimProRegular, GT Walsheim Pro"><tspan x="-22.376" y="0">Strategic</tspan><tspan x="-24.723" y="15">alignment</tspan></text>
  <text id="Business_process_focus" data-name="Business
process
focus" transform="translate(173 141)" fill="#fff" font-size="11" font-family="GTWalsheimProRegular, GT Walsheim Pro"><tspan x="-21.138" y="0">Business</tspan><tspan x="-18.987" y="15">process</tspan><tspan x="-13.412" y="30">focus</tspan></text>
  <text id="Operating_model_changes" data-name="Operating
model
changes" transform="translate(106 178)" fill="#fff" font-size="11" font-family="GTWalsheimProRegular, GT Walsheim Pro"><tspan x="-25.411" y="0">Operating</tspan><tspan x="-15.112" y="15">model</tspan><tspan x="-21.047" y="30">changes</tspan></text>
  <text id="Capability_uplift" data-name="Capability 
uplift" transform="translate(40 150)" fill="#fff" font-size="10" font-family="GTWalsheimProRegular, GT Walsheim Pro"><tspan x="-25.295" y="0">Capability </tspan><tspan x="-11.677" y="13">uplift</tspan></text>
  <text id="End-to-end_security" data-name="End-to-end
security" transform="translate(40 73)" fill="#fff" font-size="11" font-family="GTWalsheimProRegular, GT Walsheim Pro"><tspan x="-26.815" y="0">End-to-end</tspan><tspan x="-19.747" y="15">security</tspan></text>
</svg>
