<svg id="Lag_1" data-name="Lag 1" xmlns="http://www.w3.org/2000/svg" xmlns:xlink="http://www.w3.org/1999/xlink" viewBox="0 0 41.58 45.36"><defs><style>.cls-1{fill:none;}.cls-2{clip-path:url(#clip-path);}.cls-3{fill:#1d1d1b;}</style><clipPath id="clip-path"><rect class="cls-1" width="41.58" height="45.36"/></clipPath></defs><g class="cls-2"><path class="cls-3" d="M15.12,45.36,0,30.24l3.78-3.78L15.12,37.8,37.8,15.12l3.78,3.78ZM13.23,9.45A3.78,3.78,0,1,0,17,13.23a3.78,3.78,0,0,0-3.78-3.78m9.26,5.67a9.21,9.21,0,0,1-1.38,3.32l2.81,2.81-2.67,2.67-2.81-2.81a9.21,9.21,0,0,1-3.32,1.38v4H11.34v-4A9.21,9.21,0,0,1,8,21.11L5.21,23.92,2.54,21.25l2.81-2.81A9.39,9.39,0,0,1,4,15.12H0V11.34H4A9.39,9.39,0,0,1,5.35,8L2.54,5.21,5.21,2.54,8,5.35A9.21,9.21,0,0,1,11.34,4V0h3.78V4a9.21,9.21,0,0,1,3.32,1.38l2.81-2.81,2.67,2.67L21.11,8a9.21,9.21,0,0,1,1.38,3.32h4v3.78Z"/></g></svg>