<svg id="Layer_1" data-name="Layer 1" xmlns="http://www.w3.org/2000/svg" viewBox="0 0 368.5 368.5">
  <defs>
    <style>
      .cls-1 {
        fill: #ffed00;
      }

      .cls-2, .cls-3 {
        fill: #000000;
      }

      .cls-2 {
        stroke: #fff;
        stroke-miterlimit: 10;
      }

      .cls-4 {
        fill: #fff;
      }
    </style>
  </defs>
  <title>sixfactors</title>
  <polygon id="poly0" class="cls-1" points="216.3 129 152.5 129 120.6 184.25 152.5 239.5 216.3 239.5 248.2 184.25 216.3 129"/>
  <polygon id="poly6" class="cls-2" points="112.28 66.44 48.48 66.44 16.58 121.69 48.48 176.94 112.28 176.94 144.18 121.69 112.28 66.44"/>
  <polygon id="poly5" class="cls-2" points="112.28 185.86 48.48 185.86 16.58 241.12 48.48 296.37 112.28 296.37 144.18 241.12 112.28 185.86"/>
  <polygon id="poly4" class="cls-2" points="216.3 246.42 152.5 246.42 120.6 301.67 152.5 356.92 216.3 356.92 248.2 301.67 216.3 246.42"/>
  <polygon id="poly3" class="cls-2" points="320.02 184.23 256.22 184.23 224.32 239.48 256.22 294.74 320.02 294.74 351.92 239.48 320.02 184.23"/>
  <polygon id="poly2" class="cls-2" points="319.02 66.64 255.22 66.64 223.32 121.89 255.22 177.14 319.02 177.14 350.92 121.89 319.02 66.64"/>
  <polygon id="poly1" class="cls-2" points="215.65 11.58 151.85 11.58 119.95 66.83 151.85 122.08 215.65 122.08 247.55 66.83 215.65 11.58"/>
  <g id="poly0-2" data-name="poly0">
    <path class="cls-3" d="M157.57,177.14v-8.4h1.13v8.4Z"/>
    <path class="cls-3" d="M160.13,174.42a3,3,0,0,1,.21-1.1,3,3,0,0,1,.57-.92,2.67,2.67,0,0,1,.91-.62,2.94,2.94,0,0,1,1.17-.23,3,3,0,0,1,1.19.23,2.67,2.67,0,0,1,.91.62,2.89,2.89,0,0,1,.59.92,2.94,2.94,0,0,1,.2,1.1,2.85,2.85,0,0,1-.2,1.09,2.79,2.79,0,0,1-.59.92,2.67,2.67,0,0,1-.91.62,3.17,3.17,0,0,1-2.37,0,2.73,2.73,0,0,1-.9-.62,2.9,2.9,0,0,1-.57-.92A2.86,2.86,0,0,1,160.13,174.42Zm1,0a2.21,2.21,0,0,0,.13.74,1.88,1.88,0,0,0,.37.61,1.7,1.7,0,0,0,.57.41,1.65,1.65,0,0,0,.75.16,1.77,1.77,0,0,0,.77-.16,1.85,1.85,0,0,0,.58-.41,1.88,1.88,0,0,0,.37-.61,2,2,0,0,0,.13-.74,2,2,0,0,0-.13-.74,1.88,1.88,0,0,0-.37-.61,1.73,1.73,0,0,0-.58-.42,1.77,1.77,0,0,0-.77-.16,1.65,1.65,0,0,0-.75.16,1.6,1.6,0,0,0-.57.42,1.88,1.88,0,0,0-.37.61A2.26,2.26,0,0,0,161.17,174.42Z"/>
    <path class="cls-3" d="M166.49,169.72v-1h5.45v1h-2.18v7.42h-1.09v-7.42Z"/>
    <path class="cls-3" d="M175.63,174.42a3.25,3.25,0,0,1,.18-1.07,2.68,2.68,0,0,1,.51-.92,2.61,2.61,0,0,1,.85-.64,2.73,2.73,0,0,1,1.18-.24,2.94,2.94,0,0,1,1.13.19,2.49,2.49,0,0,1,.78.47,2.24,2.24,0,0,1,.47.68,2.47,2.47,0,0,1,.19.78h-1a1.39,1.39,0,0,0-.4-.84,1.52,1.52,0,0,0-1.11-.34,1.58,1.58,0,0,0-1.27.58,2.14,2.14,0,0,0-.32.62,2.52,2.52,0,0,0-.1.73,2.48,2.48,0,0,0,.1.73,1.62,1.62,0,0,0,.32.61,1.41,1.41,0,0,0,.54.42,1.74,1.74,0,0,0,.79.16,1.5,1.5,0,0,0,1-.29,1.45,1.45,0,0,0,.45-.78h1.05a2.61,2.61,0,0,1-.25.79,2.21,2.21,0,0,1-.51.63,2.54,2.54,0,0,1-.78.43,3.29,3.29,0,0,1-1,.16,2.73,2.73,0,0,1-1.18-.24,2.61,2.61,0,0,1-.85-.64,2.66,2.66,0,0,1-.52-.91A3.25,3.25,0,0,1,175.63,174.42Z"/>
    <path class="cls-3" d="M182.4,177.14v-5.45h1v1.07a1.82,1.82,0,0,1,.73-.83,2,2,0,0,1,1.08-.32,1.54,1.54,0,0,1,.52.08v1a1.76,1.76,0,0,0-.27,0h-.25a1.61,1.61,0,0,0-1.36.58,2.54,2.54,0,0,0-.45,1.57v2.39Z"/>
    <path class="cls-3" d="M186.46,169.63a.85.85,0,0,1,.24-.6.78.78,0,0,1,.59-.25.85.85,0,0,1,.85.85.78.78,0,0,1-.25.59.85.85,0,0,1-.6.24.82.82,0,0,1-.59-.24A.81.81,0,0,1,186.46,169.63Zm.32,7.51v-5.45h1v5.45Z"/>
    <path class="cls-3" d="M189,172.57v-.88h1v-1.83h1v1.83h1.42v.88H191v2.52a2.61,2.61,0,0,0,.07.63,1,1,0,0,0,.19.36.53.53,0,0,0,.28.16,2.05,2.05,0,0,0,.37,0h.37a2.34,2.34,0,0,0,.33,0v.91l-.41.05-.52,0a3.78,3.78,0,0,1-.56,0,1.29,1.29,0,0,1-1-.81,2.74,2.74,0,0,1-.17-1.05v-2.74Z"/>
    <path class="cls-3" d="M193.45,169.63a.85.85,0,0,1,.24-.6.78.78,0,0,1,.59-.25.85.85,0,0,1,.85.85.78.78,0,0,1-.25.59.85.85,0,0,1-.6.24.84.84,0,0,1-.83-.83Zm.32,7.51v-5.45h1v5.45Z"/>
    <path class="cls-3" d="M196.26,174.42a3.52,3.52,0,0,1,.17-1.07,2.88,2.88,0,0,1,.52-.92,2.61,2.61,0,0,1,.85-.64,2.72,2.72,0,0,1,1.17-.24,3,3,0,0,1,1.14.19,2.33,2.33,0,0,1,.77.47,1.94,1.94,0,0,1,.47.68,2.49,2.49,0,0,1,.2.78h-1a1.44,1.44,0,0,0-.4-.84,1.9,1.9,0,0,0-1.85-.18,1.57,1.57,0,0,0-.53.42,1.92,1.92,0,0,0-.32.62,2.53,2.53,0,0,0-.11.73,2.86,2.86,0,0,0,.1.73,1.78,1.78,0,0,0,.32.61,1.52,1.52,0,0,0,.55.42,1.73,1.73,0,0,0,.78.16,1.49,1.49,0,0,0,1-.29,1.52,1.52,0,0,0,.46-.78h1a2.36,2.36,0,0,1-.25.79,1.92,1.92,0,0,1-.51.63,2.49,2.49,0,0,1-.77.43,3.4,3.4,0,0,1-1.05.16,2.66,2.66,0,0,1-1.17-.24,2.76,2.76,0,0,1-.86-.64,2.84,2.84,0,0,1-.52-.91A3.52,3.52,0,0,1,196.26,174.42Z"/>
    <path class="cls-3" d="M202.58,174.42a3,3,0,0,1,.21-1.1,2.84,2.84,0,0,1,.57-.92,2.65,2.65,0,0,1,.88-.62,2.87,2.87,0,0,1,1.14-.23,2.28,2.28,0,0,1,1.12.29,1.85,1.85,0,0,1,.79.8v-.95h1v5.45h-1v-.95a1.94,1.94,0,0,1-.78.8,2.32,2.32,0,0,1-1.13.29,2.87,2.87,0,0,1-1.14-.23,2.65,2.65,0,0,1-.88-.62,2.74,2.74,0,0,1-.57-.92A2.86,2.86,0,0,1,202.58,174.42Zm1,0a2.21,2.21,0,0,0,.13.74,1.88,1.88,0,0,0,.37.61,1.81,1.81,0,0,0,.57.41,1.65,1.65,0,0,0,.75.16,1.77,1.77,0,0,0,.77-.16,1.85,1.85,0,0,0,.58-.41,1.88,1.88,0,0,0,.37-.61,2,2,0,0,0,.13-.74,2,2,0,0,0-.13-.74,1.88,1.88,0,0,0-.37-.61,1.73,1.73,0,0,0-.58-.42,1.77,1.77,0,0,0-.77-.16,1.65,1.65,0,0,0-.75.16,1.69,1.69,0,0,0-.57.42,1.88,1.88,0,0,0-.37.61A2.26,2.26,0,0,0,203.62,174.42Z"/>
    <path class="cls-3" d="M210.19,177.14v-8.4h1v8.4Z"/>
    <path class="cls-3" d="M163.94,189.71h1a1,1,0,0,0,.39.88,1.73,1.73,0,0,0,1,.25,1.39,1.39,0,0,0,.75-.18.67.67,0,0,0,.27-.6.52.52,0,0,0-.12-.36,1,1,0,0,0-.34-.25,4.6,4.6,0,0,0-.55-.21l-.73-.22c-.21-.06-.4-.13-.58-.2a1.67,1.67,0,0,1-.47-.28,1.27,1.27,0,0,1-.31-.41,1.39,1.39,0,0,1-.11-.61,1.34,1.34,0,0,1,.16-.68,1.37,1.37,0,0,1,.44-.49,2.17,2.17,0,0,1,.67-.3,3.61,3.61,0,0,1,.82-.1,2.64,2.64,0,0,1,.81.13,2,2,0,0,1,.65.38,1.87,1.87,0,0,1,.43.58,1.65,1.65,0,0,1,.16.75h-.93A1,1,0,0,0,167,187a1.3,1.3,0,0,0-.86-.26,1.39,1.39,0,0,0-.76.2.64.64,0,0,0-.3.57.56.56,0,0,0,.1.33.76.76,0,0,0,.31.23,3,3,0,0,0,.49.19l.67.21.62.2a2.57,2.57,0,0,1,.52.28,1.25,1.25,0,0,1,.37.42,1.28,1.28,0,0,1,.14.63,1.53,1.53,0,0,1-.16.72,1.5,1.5,0,0,1-.43.51,2,2,0,0,1-.66.3,3.14,3.14,0,0,1-.83.11,3.24,3.24,0,0,1-.89-.12,2.28,2.28,0,0,1-.73-.37,1.83,1.83,0,0,1-.51-.62A1.94,1.94,0,0,1,163.94,189.71Z"/>
    <path class="cls-3" d="M169.69,189.31v-3.22h1V189a3.15,3.15,0,0,0,.08.71,1.37,1.37,0,0,0,.23.55,1.15,1.15,0,0,0,.42.37,1.38,1.38,0,0,0,.64.14,1.47,1.47,0,0,0,.69-.15,1.3,1.3,0,0,0,.49-.41,2.16,2.16,0,0,0,.29-.59,2.71,2.71,0,0,0,.09-.71v-2.79h1v5.45h-1v-1a1.81,1.81,0,0,1-.74.81,2.13,2.13,0,0,1-1.17.31,2.43,2.43,0,0,1-1-.19,1.65,1.65,0,0,1-.66-.52,1.94,1.94,0,0,1-.32-.7A4.35,4.35,0,0,1,169.69,189.31Z"/>
    <path class="cls-3" d="M176.16,188.82a3.52,3.52,0,0,1,.17-1.07,2.88,2.88,0,0,1,.52-.92,2.51,2.51,0,0,1,.85-.64,2.72,2.72,0,0,1,1.17-.24,2.94,2.94,0,0,1,1.13.19,2.28,2.28,0,0,1,.78.47,1.94,1.94,0,0,1,.47.68,2.49,2.49,0,0,1,.2.78h-1a1.4,1.4,0,0,0-.41-.84,1.49,1.49,0,0,0-1.11-.34,1.54,1.54,0,0,0-.73.16,1.57,1.57,0,0,0-.53.42,1.92,1.92,0,0,0-.32.62,2.53,2.53,0,0,0-.11.73,2.86,2.86,0,0,0,.1.73,1.78,1.78,0,0,0,.32.61,1.52,1.52,0,0,0,.55.42,1.73,1.73,0,0,0,.78.16,1.49,1.49,0,0,0,1-.29,1.52,1.52,0,0,0,.46-.78h1a2.36,2.36,0,0,1-.25.79,2.21,2.21,0,0,1-.51.63,2.49,2.49,0,0,1-.77.43,3.4,3.4,0,0,1-1.05.16,2.57,2.57,0,0,1-2-.88,2.84,2.84,0,0,1-.52-.91A3.52,3.52,0,0,1,176.16,188.82Z"/>
    <path class="cls-3" d="M182.45,188.82a3.24,3.24,0,0,1,.17-1.07,2.68,2.68,0,0,1,.51-.92,2.65,2.65,0,0,1,.86-.64,2.72,2.72,0,0,1,1.17-.24,2.94,2.94,0,0,1,1.13.19,2.28,2.28,0,0,1,.78.47,2.08,2.08,0,0,1,.47.68,2.8,2.8,0,0,1,.2.78h-1.05a1.39,1.39,0,0,0-.4-.84,1.52,1.52,0,0,0-1.11-.34,1.58,1.58,0,0,0-.74.16,1.53,1.53,0,0,0-.52.42,1.92,1.92,0,0,0-.32.62,2.23,2.23,0,0,0-.11.73,2.48,2.48,0,0,0,.1.73,1.78,1.78,0,0,0,.32.61,1.49,1.49,0,0,0,.54.42,1.77,1.77,0,0,0,.79.16,1.5,1.5,0,0,0,1-.29,1.45,1.45,0,0,0,.45-.78h1.05a2.36,2.36,0,0,1-.25.79,2.21,2.21,0,0,1-.51.63,2.43,2.43,0,0,1-.78.43,3.29,3.29,0,0,1-1,.16,2.57,2.57,0,0,1-2-.88,2.66,2.66,0,0,1-.52-.91A3.24,3.24,0,0,1,182.45,188.82Z"/>
    <path class="cls-3" d="M188.73,188.82a3.49,3.49,0,0,1,.18-1.14,2.78,2.78,0,0,1,.53-.92,2.32,2.32,0,0,1,.84-.59,2.74,2.74,0,0,1,1.15-.22,2.53,2.53,0,0,1,1,.19,2.26,2.26,0,0,1,.8.52,2.35,2.35,0,0,1,.53.78,2.4,2.4,0,0,1,.2,1c0,.08,0,.17,0,.28a3.18,3.18,0,0,1,0,.4h-4.12a2.08,2.08,0,0,0,.11.66,1.78,1.78,0,0,0,.3.54,1.4,1.4,0,0,0,.51.37,1.93,1.93,0,0,0,.77.14,1.33,1.33,0,0,0,1.37-.86h1.06a1.93,1.93,0,0,1-.26.65,2,2,0,0,1-.51.55,2.67,2.67,0,0,1-.73.39,2.75,2.75,0,0,1-.93.15,3,3,0,0,1-1.21-.23,2.34,2.34,0,0,1-1.36-1.52A3.68,3.68,0,0,1,188.73,188.82Zm1.06-.52h3.15a1.47,1.47,0,0,0-1.53-1.56,1.66,1.66,0,0,0-1.16.41A1.54,1.54,0,0,0,189.79,188.3Z"/>
    <path class="cls-3" d="M195,189.71h1a1,1,0,0,0,.38.88,1.73,1.73,0,0,0,1,.25,1.36,1.36,0,0,0,.75-.18.67.67,0,0,0,.27-.6.52.52,0,0,0-.12-.36,1,1,0,0,0-.34-.25,5.12,5.12,0,0,0-.54-.21l-.74-.22-.58-.2a1.67,1.67,0,0,1-.47-.28,1.27,1.27,0,0,1-.31-.41,1.55,1.55,0,0,1-.11-.61,1.34,1.34,0,0,1,.16-.68,1.47,1.47,0,0,1,.44-.49,2.28,2.28,0,0,1,.67-.3,3.63,3.63,0,0,1,.83-.1,2.63,2.63,0,0,1,.8.13,2,2,0,0,1,.65.38,1.87,1.87,0,0,1,.43.58,1.65,1.65,0,0,1,.16.75h-.93a.94.94,0,0,0-.29-.75,1.28,1.28,0,0,0-.86-.26,1.35,1.35,0,0,0-.75.2.62.62,0,0,0-.3.57.56.56,0,0,0,.09.33.76.76,0,0,0,.31.23,3.35,3.35,0,0,0,.49.19l.67.21.62.2a2.66,2.66,0,0,1,.53.28,1.22,1.22,0,0,1,.36.42,1.18,1.18,0,0,1,.14.63,1.53,1.53,0,0,1-.16.72,1.5,1.5,0,0,1-.43.51,2,2,0,0,1-.66.3,3.09,3.09,0,0,1-.83.11,3.12,3.12,0,0,1-.88-.12,2.24,2.24,0,0,1-.74-.37,1.69,1.69,0,0,1-.5-.62A1.82,1.82,0,0,1,195,189.71Z"/>
    <path class="cls-3" d="M200.43,189.71h1a1,1,0,0,0,.38.88,1.73,1.73,0,0,0,1,.25,1.36,1.36,0,0,0,.75-.18.67.67,0,0,0,.27-.6.52.52,0,0,0-.12-.36,1,1,0,0,0-.34-.25,5.12,5.12,0,0,0-.54-.21l-.74-.22-.58-.2a1.67,1.67,0,0,1-.47-.28,1.27,1.27,0,0,1-.31-.41,1.55,1.55,0,0,1-.11-.61,1.34,1.34,0,0,1,.16-.68,1.37,1.37,0,0,1,.44-.49,2.28,2.28,0,0,1,.67-.3,3.63,3.63,0,0,1,.83-.1,2.63,2.63,0,0,1,.8.13,2,2,0,0,1,.65.38,1.87,1.87,0,0,1,.43.58,1.65,1.65,0,0,1,.16.75h-.93a.94.94,0,0,0-.29-.75,1.28,1.28,0,0,0-.86-.26,1.35,1.35,0,0,0-.75.2.62.62,0,0,0-.3.57.56.56,0,0,0,.09.33.76.76,0,0,0,.31.23,3.35,3.35,0,0,0,.49.19l.67.21.62.2a2.66,2.66,0,0,1,.53.28,1.22,1.22,0,0,1,.36.42,1.18,1.18,0,0,1,.14.63,1.53,1.53,0,0,1-.16.72,1.5,1.5,0,0,1-.43.51,2,2,0,0,1-.66.3,3.09,3.09,0,0,1-.83.11,3.12,3.12,0,0,1-.88-.12,2.24,2.24,0,0,1-.74-.37,1.69,1.69,0,0,1-.5-.62A1.82,1.82,0,0,1,200.43,189.71Z"/>
    <path class="cls-3" d="M165.68,201.37v-.88h1.18v-1a2.73,2.73,0,0,1,.2-1.15,1.49,1.49,0,0,1,.48-.62,1.38,1.38,0,0,1,.62-.25,3,3,0,0,1,.56-.05,1.94,1.94,0,0,1,.44,0,.94.94,0,0,1,.3.11v.88l-.29-.07a1.57,1.57,0,0,0-.32,0,1.83,1.83,0,0,0-.33,0,.66.66,0,0,0-.53.43,1.5,1.5,0,0,0-.09.58v1.05h1.56v.88H167.9v4.57h-1v-4.57Z"/>
    <path class="cls-3" d="M169.93,203.22a2.94,2.94,0,0,1,.2-1.1,3,3,0,0,1,.58-.92,2.65,2.65,0,0,1,.88-.62,2.8,2.8,0,0,1,1.14-.23,2.31,2.31,0,0,1,1.12.29,1.9,1.9,0,0,1,.79.8v-.95h1v5.45h-1V205a2,2,0,0,1-.79.8,2.28,2.28,0,0,1-1.12.29,2.8,2.8,0,0,1-1.14-.23,2.54,2.54,0,0,1-.88-.63,2.78,2.78,0,0,1-.58-.91A2.85,2.85,0,0,1,169.93,203.22Zm1,0a2,2,0,0,0,.5,1.35,1.66,1.66,0,0,0,.56.41,1.85,1.85,0,0,0,2.1-.41,2,2,0,0,0,.38-.61,2.17,2.17,0,0,0,0-1.48,1.91,1.91,0,0,0-.38-.61,1.63,1.63,0,0,0-.58-.42,1.88,1.88,0,0,0-1.52,0,1.56,1.56,0,0,0-.56.42,1.88,1.88,0,0,0-.37.61A2,2,0,0,0,171,203.22Z"/>
    <path class="cls-3" d="M177.11,203.22a3.52,3.52,0,0,1,.17-1.07,2.88,2.88,0,0,1,.52-.92,2.61,2.61,0,0,1,.85-.64,2.72,2.72,0,0,1,1.17-.24,3,3,0,0,1,1.14.19,2.49,2.49,0,0,1,.78.47,2,2,0,0,1,.46.68,2.49,2.49,0,0,1,.2.78h-1a1.39,1.39,0,0,0-.4-.84,1.52,1.52,0,0,0-1.11-.34,1.58,1.58,0,0,0-1.27.58,1.92,1.92,0,0,0-.32.62,2.53,2.53,0,0,0-.11.73,2.48,2.48,0,0,0,.11.73,1.6,1.6,0,0,0,.31.61,1.52,1.52,0,0,0,.55.42,1.73,1.73,0,0,0,.78.16,1.53,1.53,0,0,0,1-.29,1.58,1.58,0,0,0,.45-.78h1a2.36,2.36,0,0,1-.25.79,1.92,1.92,0,0,1-.51.63,2.49,2.49,0,0,1-.77.43,3.36,3.36,0,0,1-1,.16,2.69,2.69,0,0,1-1.17-.24,2.76,2.76,0,0,1-.86-.64,2.84,2.84,0,0,1-.52-.91A3.52,3.52,0,0,1,177.11,203.22Z"/>
    <path class="cls-3" d="M183.18,201.37v-.88h1v-1.83h1v1.83h1.42v.88h-1.42v2.52a2.19,2.19,0,0,0,.07.63.88.88,0,0,0,.19.36.53.53,0,0,0,.28.16,1.94,1.94,0,0,0,.36,0h.38a2.34,2.34,0,0,0,.33,0v.91l-.41.05-.53,0a3.74,3.74,0,0,1-.55,0,1.33,1.33,0,0,1-.56-.24,1.38,1.38,0,0,1-.43-.57,2.74,2.74,0,0,1-.17-1v-2.74Z"/>
    <path class="cls-3" d="M187.46,203.22a3,3,0,0,1,.21-1.1,3,3,0,0,1,.58-.92,2.73,2.73,0,0,1,.9-.62,3,3,0,0,1,1.18-.23,3,3,0,0,1,1.19.23,2.88,2.88,0,0,1,.91.62,3,3,0,0,1,.58.92,3,3,0,0,1,.21,1.1,2.86,2.86,0,0,1-.21,1.09,2.77,2.77,0,0,1-1.49,1.54,3,3,0,0,1-1.19.23,3,3,0,0,1-1.18-.23,2.61,2.61,0,0,1-.9-.63,2.78,2.78,0,0,1-.58-.91A2.86,2.86,0,0,1,187.46,203.22Zm1,0a2,2,0,0,0,.13.74,2.18,2.18,0,0,0,.36.61,1.81,1.81,0,0,0,.57.41,1.67,1.67,0,0,0,.76.16,1.84,1.84,0,0,0,1.34-.57,2.1,2.1,0,0,0,.37-2.09,1.88,1.88,0,0,0-.37-.61,1.63,1.63,0,0,0-.58-.42,1.73,1.73,0,0,0-.76-.16,1.67,1.67,0,0,0-.76.16,1.69,1.69,0,0,0-.57.42,2,2,0,0,0-.36.61A2,2,0,0,0,188.51,203.22Z"/>
    <path class="cls-3" d="M194.62,205.94v-5.45h1v1.07a1.75,1.75,0,0,1,.72-.83,2,2,0,0,1,1.09-.32,1.47,1.47,0,0,1,.51.08v1a1.76,1.76,0,0,0-.27,0l-.24,0a1.63,1.63,0,0,0-1.37.59,2.61,2.61,0,0,0-.44,1.57v2.39Z"/>
    <path class="cls-3" d="M198.44,204.11h1a1,1,0,0,0,.38.88,1.73,1.73,0,0,0,1,.25,1.36,1.36,0,0,0,.75-.18.67.67,0,0,0,.27-.6.52.52,0,0,0-.12-.36,1,1,0,0,0-.34-.25,5.12,5.12,0,0,0-.54-.21l-.74-.22-.58-.2a1.67,1.67,0,0,1-.47-.28,1.27,1.27,0,0,1-.31-.41,1.55,1.55,0,0,1-.11-.61,1.34,1.34,0,0,1,.16-.68,1.47,1.47,0,0,1,.44-.49,2.28,2.28,0,0,1,.67-.3,3.63,3.63,0,0,1,.83-.1,2.63,2.63,0,0,1,.8.13,2,2,0,0,1,.65.38,1.87,1.87,0,0,1,.43.58,1.65,1.65,0,0,1,.16.75h-.93a.94.94,0,0,0-.29-.75,1.28,1.28,0,0,0-.86-.26,1.35,1.35,0,0,0-.75.2.64.64,0,0,0-.3.57.5.5,0,0,0,.1.33.67.67,0,0,0,.3.23,3.35,3.35,0,0,0,.49.19l.67.21.62.2a2.66,2.66,0,0,1,.53.28,1.22,1.22,0,0,1,.36.42,1.18,1.18,0,0,1,.14.63,1.66,1.66,0,0,1-.15.72,1.53,1.53,0,0,1-.44.51,2,2,0,0,1-.66.3,3.09,3.09,0,0,1-.83.11,3.17,3.17,0,0,1-.88-.12,2.24,2.24,0,0,1-.74-.37,1.69,1.69,0,0,1-.5-.62A1.82,1.82,0,0,1,198.44,204.11Z"/>
  </g>
  <g id="poly1-2" data-name="poly1">
    <path class="cls-4" d="M162.28,63.89V55.48h2.86a3.22,3.22,0,0,1,1.25.22,2.27,2.27,0,0,1,.79.55,1.81,1.81,0,0,1,.4.73,2.9,2.9,0,0,1,.11.75,1.83,1.83,0,0,1-.46,1.28,2,2,0,0,1-.47.4,1.77,1.77,0,0,1-.56.22,1.57,1.57,0,0,1,.51.16,1.67,1.67,0,0,1,.51.37,2.09,2.09,0,0,1,.54,1.4,2.78,2.78,0,0,1-.12.77,1.9,1.9,0,0,1-.43.75,2.33,2.33,0,0,1-.8.58,3.12,3.12,0,0,1-1.26.23Zm1.09-4.73h1.8a1.53,1.53,0,0,0,.68-.13,1.14,1.14,0,0,0,.44-.33,1.08,1.08,0,0,0,.24-.43,1.42,1.42,0,0,0,.08-.45,1.53,1.53,0,0,0-.08-.45,1.19,1.19,0,0,0-.24-.44,1.37,1.37,0,0,0-.44-.33,1.67,1.67,0,0,0-.71-.13h-1.77Zm0,3.74h1.83a1.78,1.78,0,0,0,.69-.12,1.47,1.47,0,0,0,.46-.33,1.14,1.14,0,0,0,.25-.44,2,2,0,0,0,.07-.48,1.54,1.54,0,0,0-.08-.46,1.43,1.43,0,0,0-.25-.45,1.57,1.57,0,0,0-.45-.34,1.46,1.46,0,0,0-.66-.14h-1.86Z"/>
    <path class="cls-4" d="M169.26,61.65V58.44h1v2.87a3.11,3.11,0,0,0,.07.71,1.67,1.67,0,0,0,.24.56A1.17,1.17,0,0,0,171,63a1.35,1.35,0,0,0,.64.13,1.47,1.47,0,0,0,.69-.15,1.18,1.18,0,0,0,.48-.4,1.71,1.71,0,0,0,.29-.59,2.44,2.44,0,0,0,.1-.71V58.44h1v5.45h-1v-1a2,2,0,0,1-.74.82,2.23,2.23,0,0,1-1.18.3,2.33,2.33,0,0,1-1-.19,1.47,1.47,0,0,1-.65-.52,1.75,1.75,0,0,1-.32-.69A4.38,4.38,0,0,1,169.26,61.65Z"/>
    <path class="cls-4" d="M175.7,62.05h1a1,1,0,0,0,.39.88,1.71,1.71,0,0,0,1,.26,1.25,1.25,0,0,0,.74-.19.64.64,0,0,0,.28-.59A.55.55,0,0,0,179,62a1.14,1.14,0,0,0-.34-.24,2.64,2.64,0,0,0-.55-.21l-.73-.22c-.21-.07-.4-.13-.59-.21a1.6,1.6,0,0,1-.46-.27,1.15,1.15,0,0,1-.31-.42,1.35,1.35,0,0,1-.12-.61,1.39,1.39,0,0,1,.16-.68,1.61,1.61,0,0,1,.45-.49,1.94,1.94,0,0,1,.67-.29,3.07,3.07,0,0,1,.82-.1,2.37,2.37,0,0,1,.81.13,1.92,1.92,0,0,1,.65.38,1.7,1.7,0,0,1,.58,1.32h-.92a.92.92,0,0,0-.3-.74,1.26,1.26,0,0,0-.86-.26,1.35,1.35,0,0,0-.75.19.64.64,0,0,0-.3.57.53.53,0,0,0,.1.34.82.82,0,0,0,.3.23,5.07,5.07,0,0,0,.49.19l.68.21.61.2a2,2,0,0,1,.53.27,1.37,1.37,0,0,1,.37.42,1.35,1.35,0,0,1,.14.64,1.58,1.58,0,0,1-.16.71,1.53,1.53,0,0,1-.44.51,1.92,1.92,0,0,1-.66.31,3.07,3.07,0,0,1-.82.1,3.19,3.19,0,0,1-.89-.12,2.17,2.17,0,0,1-.73-.36,2,2,0,0,1-.51-.62A1.86,1.86,0,0,1,175.7,62.05Z"/>
    <path class="cls-4" d="M181.25,56.37a.82.82,0,0,1,.24-.59.78.78,0,0,1,.59-.25.82.82,0,0,1,.6.25.79.79,0,0,1,.25.59.76.76,0,0,1-.25.59.85.85,0,0,1-.6.24.81.81,0,0,1-.59-.24A.79.79,0,0,1,181.25,56.37Zm.32,7.52V58.44h1v5.45Z"/>
    <path class="cls-4" d="M184.48,63.89V58.44h1v1a1.87,1.87,0,0,1,.73-.82,2.26,2.26,0,0,1,1.19-.3,2.38,2.38,0,0,1,1,.18,1.44,1.44,0,0,1,.65.54,2.1,2.1,0,0,1,.33.69,4.35,4.35,0,0,1,.09,1v3.22h-1V61a3.11,3.11,0,0,0-.07-.69,1.63,1.63,0,0,0-.24-.57,1.16,1.16,0,0,0-.42-.37,1.42,1.42,0,0,0-.65-.14,1.46,1.46,0,0,0-.69.16,1.62,1.62,0,0,0-.48.42,1.79,1.79,0,0,0-.28.59,2.26,2.26,0,0,0-.1.69v2.8Z"/>
    <path class="cls-4" d="M190.84,61.16A3.58,3.58,0,0,1,191,60a2.55,2.55,0,0,1,.52-.91,2.31,2.31,0,0,1,.84-.6,3,3,0,0,1,1.15-.21,2.68,2.68,0,0,1,1,.18,2.31,2.31,0,0,1,.8.52,2.52,2.52,0,0,1,.54.79,2.38,2.38,0,0,1,.19,1c0,.08,0,.18,0,.29a2.07,2.07,0,0,1,0,.4h-4.12a2.27,2.27,0,0,0,.11.65,1.57,1.57,0,0,0,.3.54,1.46,1.46,0,0,0,.51.37,1.8,1.8,0,0,0,.77.14,1.43,1.43,0,0,0,.93-.26,1.34,1.34,0,0,0,.44-.6H196a1.86,1.86,0,0,1-.26.66,2.2,2.2,0,0,1-.51.55,2.3,2.3,0,0,1-.73.38,2.75,2.75,0,0,1-.93.15,2.87,2.87,0,0,1-1.21-.23,2.32,2.32,0,0,1-.85-.61,2.47,2.47,0,0,1-.51-.91A3.68,3.68,0,0,1,190.84,61.16Zm1-.51H195a1.52,1.52,0,0,0-.43-1.15,1.56,1.56,0,0,0-1.1-.41,1.63,1.63,0,0,0-1.15.4A1.57,1.57,0,0,0,191.89,60.65Z"/>
    <path class="cls-4" d="M197.11,62.05h1a1,1,0,0,0,.39.88,1.71,1.71,0,0,0,1,.26,1.25,1.25,0,0,0,.74-.19.64.64,0,0,0,.28-.59.55.55,0,0,0-.12-.37,1.14,1.14,0,0,0-.34-.24,2.64,2.64,0,0,0-.55-.21l-.73-.22c-.21-.07-.4-.13-.59-.21a1.6,1.6,0,0,1-.46-.27,1.15,1.15,0,0,1-.31-.42,1.35,1.35,0,0,1-.12-.61,1.39,1.39,0,0,1,.16-.68,1.61,1.61,0,0,1,.45-.49,1.94,1.94,0,0,1,.67-.29,3.07,3.07,0,0,1,.82-.1,2.37,2.37,0,0,1,.81.13,1.92,1.92,0,0,1,.65.38,1.7,1.7,0,0,1,.58,1.32h-.92a.92.92,0,0,0-.3-.74,1.26,1.26,0,0,0-.86-.26,1.35,1.35,0,0,0-.75.19.64.64,0,0,0-.3.57.53.53,0,0,0,.1.34.82.82,0,0,0,.3.23,5.07,5.07,0,0,0,.49.19l.68.21.61.2a2,2,0,0,1,.53.27,1.37,1.37,0,0,1,.37.42,1.35,1.35,0,0,1,.14.64,1.58,1.58,0,0,1-.16.71,1.53,1.53,0,0,1-.44.51,1.84,1.84,0,0,1-.66.31,3.07,3.07,0,0,1-.82.1,3.19,3.19,0,0,1-.89-.12,2.17,2.17,0,0,1-.73-.36,2,2,0,0,1-.51-.62A1.86,1.86,0,0,1,197.11,62.05Z"/>
    <path class="cls-4" d="M202.53,62.05h1a1,1,0,0,0,.39.88,1.71,1.71,0,0,0,1,.26,1.25,1.25,0,0,0,.74-.19.64.64,0,0,0,.28-.59.55.55,0,0,0-.12-.37,1.14,1.14,0,0,0-.34-.24,2.64,2.64,0,0,0-.55-.21l-.73-.22c-.21-.07-.4-.13-.59-.21a1.6,1.6,0,0,1-.46-.27,1.15,1.15,0,0,1-.31-.42,1.35,1.35,0,0,1-.12-.61,1.39,1.39,0,0,1,.16-.68,1.61,1.61,0,0,1,.45-.49,1.94,1.94,0,0,1,.67-.29,3.07,3.07,0,0,1,.82-.1,2.37,2.37,0,0,1,.81.13,1.92,1.92,0,0,1,.65.38,1.7,1.7,0,0,1,.58,1.32h-.92a.92.92,0,0,0-.3-.74,1.26,1.26,0,0,0-.86-.26,1.35,1.35,0,0,0-.75.19.64.64,0,0,0-.3.57.53.53,0,0,0,.1.34.82.82,0,0,0,.3.23,5.07,5.07,0,0,0,.49.19l.68.21.61.2a2,2,0,0,1,.53.27,1.37,1.37,0,0,1,.37.42,1.35,1.35,0,0,1,.14.64,1.58,1.58,0,0,1-.16.71,1.53,1.53,0,0,1-.44.51,1.84,1.84,0,0,1-.66.31,3.07,3.07,0,0,1-.82.1,3.19,3.19,0,0,1-.89-.12,2.17,2.17,0,0,1-.73-.36,2,2,0,0,1-.51-.62A1.86,1.86,0,0,1,202.53,62.05Z"/>
    <path class="cls-4" d="M163.77,78.29V69.88h1v3.9a1.91,1.91,0,0,1,.78-.79,2.2,2.2,0,0,1,1.12-.29,2.88,2.88,0,0,1,1.15.22,2.54,2.54,0,0,1,.88.63,2.64,2.64,0,0,1,.57.92,3,3,0,0,1,0,2.19,2.69,2.69,0,0,1-.57.91,2.65,2.65,0,0,1-.88.62,2.72,2.72,0,0,1-1.15.23,2.24,2.24,0,0,1-1.11-.29,1.94,1.94,0,0,1-.79-.79v1Zm1-2.73a2,2,0,0,0,.14.75,1.68,1.68,0,0,0,.37.6,1.63,1.63,0,0,0,.58.42,1.84,1.84,0,0,0,.76.15,1.86,1.86,0,0,0,.75-.15,1.69,1.69,0,0,0,.57-.42,1.81,1.81,0,0,0,.36-.6,2.05,2.05,0,0,0,0-1.49,2,2,0,0,0-.36-.61,2,2,0,0,0-.57-.42,1.87,1.87,0,0,0-.75-.16,1.84,1.84,0,0,0-.76.16,1.92,1.92,0,0,0-.58.42,1.82,1.82,0,0,0-.37.61A2.07,2.07,0,0,0,164.81,75.56Z"/>
    <path class="cls-4" d="M170.53,75.56a3.33,3.33,0,0,1,.19-1.14,2.55,2.55,0,0,1,.52-.91,2.31,2.31,0,0,1,.84-.6,3,3,0,0,1,1.15-.21,2.72,2.72,0,0,1,1,.18,2.31,2.31,0,0,1,.8.52,2.34,2.34,0,0,1,.53.79,2.39,2.39,0,0,1,.2,1c0,.08,0,.18,0,.29a3.58,3.58,0,0,1,0,.4h-4.12a2,2,0,0,0,.11.65,1.57,1.57,0,0,0,.3.54,1.3,1.3,0,0,0,.51.37,1.77,1.77,0,0,0,.77.14,1.38,1.38,0,0,0,.92-.26,1.36,1.36,0,0,0,.45-.6h1.06a2.07,2.07,0,0,1-.26.66,2.2,2.2,0,0,1-.51.55,2.41,2.41,0,0,1-.73.38,2.75,2.75,0,0,1-.93.15,2.87,2.87,0,0,1-1.21-.23,2.32,2.32,0,0,1-.85-.61,2.47,2.47,0,0,1-.51-.91A3.68,3.68,0,0,1,170.53,75.56Zm1.06-.51h3.15a1.46,1.46,0,0,0-1.53-1.56,1.63,1.63,0,0,0-1.15.4A1.53,1.53,0,0,0,171.59,75.05Z"/>
    <path class="cls-4" d="M177.25,78.29V72.84h1.05v1A1.81,1.81,0,0,1,179,73a2.24,2.24,0,0,1,1.19-.3,2.42,2.42,0,0,1,1,.18,1.49,1.49,0,0,1,.65.54,1.9,1.9,0,0,1,.32.69,3.77,3.77,0,0,1,.1,1v3.22h-1V75.4a3.1,3.1,0,0,0-.08-.69,1.62,1.62,0,0,0-.23-.57,1.19,1.19,0,0,0-.43-.37,1.39,1.39,0,0,0-.65-.14,1.45,1.45,0,0,0-.68.16,1.62,1.62,0,0,0-.48.42,1.81,1.81,0,0,0-.29.59,2.61,2.61,0,0,0-.09.69v2.8Z"/>
    <path class="cls-4" d="M183.61,75.56a3.58,3.58,0,0,1,.18-1.14,2.57,2.57,0,0,1,.53-.91,2.15,2.15,0,0,1,.84-.6,2.91,2.91,0,0,1,1.15-.21,2.72,2.72,0,0,1,1,.18,2.4,2.4,0,0,1,.8.52,2.49,2.49,0,0,1,.53.79,2.39,2.39,0,0,1,.2,1c0,.08,0,.18,0,.29a3.58,3.58,0,0,1,0,.4h-4.13a2.27,2.27,0,0,0,.12.65,1.57,1.57,0,0,0,.3.54,1.3,1.3,0,0,0,.51.37,1.72,1.72,0,0,0,.76.14,1.39,1.39,0,0,0,.93-.26,1.44,1.44,0,0,0,.45-.6h1.06a2.33,2.33,0,0,1-.26.66,2.2,2.2,0,0,1-.51.55,2.41,2.41,0,0,1-.73.38,2.77,2.77,0,0,1-.94.15,2.83,2.83,0,0,1-1.2-.23,2.36,2.36,0,0,1-.86-.61,2.6,2.6,0,0,1-.5-.91A3.68,3.68,0,0,1,183.61,75.56Zm1.06-.51h3.15a1.46,1.46,0,0,0-1.53-1.56,1.65,1.65,0,0,0-1.16.4A1.56,1.56,0,0,0,184.67,75.05Z"/>
    <path class="cls-4" d="M189.65,73.72v-.88h1.17v-1a2.78,2.78,0,0,1,.2-1.16,1.56,1.56,0,0,1,.49-.62,1.41,1.41,0,0,1,.61-.25,4.13,4.13,0,0,1,.56,0,2.65,2.65,0,0,1,.44,0,1.37,1.37,0,0,1,.31.11v.89a1.82,1.82,0,0,0-.29-.08l-.32,0-.34,0a.76.76,0,0,0-.31.13.75.75,0,0,0-.22.31,1.65,1.65,0,0,0-.08.57v1.06h1.56v.88h-1.56v4.57h-1.05V73.72Z"/>
    <path class="cls-4" d="M194.18,70.77a.82.82,0,0,1,.24-.59.76.76,0,0,1,.59-.25.82.82,0,0,1,.6.25.83.83,0,0,1,.25.59.8.8,0,0,1-.25.59.85.85,0,0,1-.6.24.81.81,0,0,1-.59-.24A.79.79,0,0,1,194.18,70.77Zm.31,7.52V72.84h1v5.45Z"/>
    <path class="cls-4" d="M196.71,73.72v-.88h1V71h1v1.84h1.42v.88h-1.42v2.51a2.57,2.57,0,0,0,.06.63.87.87,0,0,0,.19.36.5.5,0,0,0,.28.16,1.4,1.4,0,0,0,.37,0H200a2.11,2.11,0,0,0,.33,0v.92l-.42,0a4.41,4.41,0,0,1-.52,0,3.74,3.74,0,0,1-.55,0,1.31,1.31,0,0,1-.56-.23,1.4,1.4,0,0,1-.43-.58,2.48,2.48,0,0,1-.18-1V73.72Z"/>
    <path class="cls-4" d="M201,76.45h1a1,1,0,0,0,.39.88,1.73,1.73,0,0,0,1,.26,1.3,1.3,0,0,0,.75-.19.66.66,0,0,0,.27-.59.55.55,0,0,0-.12-.37,1,1,0,0,0-.34-.24,2.77,2.77,0,0,0-.54-.21l-.74-.22c-.2-.07-.4-.13-.58-.21a1.65,1.65,0,0,1-.47-.27,1.43,1.43,0,0,1-.31-.42,1.36,1.36,0,0,1-.11-.61,1.39,1.39,0,0,1,.16-.68,1.46,1.46,0,0,1,.44-.49,2,2,0,0,1,.67-.29,3.15,3.15,0,0,1,.83-.1,2.36,2.36,0,0,1,.8.13,1.83,1.83,0,0,1,.65.38,1.66,1.66,0,0,1,.43.58,1.64,1.64,0,0,1,.16.74h-.93a.92.92,0,0,0-.29-.74,1.28,1.28,0,0,0-.86-.26,1.35,1.35,0,0,0-.75.19.65.65,0,0,0-.31.57.6.6,0,0,0,.1.34.86.86,0,0,0,.31.23,4.22,4.22,0,0,0,.49.19l.67.21.62.2a2,2,0,0,1,.52.27,1.15,1.15,0,0,1,.37.42,1.24,1.24,0,0,1,.14.64,1.46,1.46,0,0,1-.16.71,1.5,1.5,0,0,1-.43.51,2,2,0,0,1-.66.31,3.38,3.38,0,0,1-1.71,0,2.06,2.06,0,0,1-.74-.37,1.75,1.75,0,0,1-.5-.61A1.86,1.86,0,0,1,201,76.45Z"/>
  </g>
  <g id="poly2-2" data-name="poly2">
    <path class="cls-4" d="M264.25,116.72h1.09a1.82,1.82,0,0,0,.52,1.37,2.1,2.1,0,0,0,2.58.13,1.43,1.43,0,0,0,.33-1.68,1.57,1.57,0,0,0-.38-.43,2.36,2.36,0,0,0-.52-.28l-.56-.18c-.38-.12-.73-.25-1.07-.37a3.84,3.84,0,0,1-.88-.47,2,2,0,0,1-.59-.71,2.21,2.21,0,0,1-.22-1,2.14,2.14,0,0,1,.2-.92,2,2,0,0,1,.55-.7,2.27,2.27,0,0,1,.82-.46,3.26,3.26,0,0,1,1.05-.17,3,3,0,0,1,1.05.19,2.38,2.38,0,0,1,1.38,1.33,2.59,2.59,0,0,1,.21,1.05h-1.09a1.67,1.67,0,0,0-.42-1.15,1.44,1.44,0,0,0-1.11-.43,1.76,1.76,0,0,0-1.12.33,1.11,1.11,0,0,0-.43.93,1.16,1.16,0,0,0,.13.58,1.31,1.31,0,0,0,.35.39,2.4,2.4,0,0,0,.5.28,5.66,5.66,0,0,0,.58.2c.32.1.65.22,1,.35a4.37,4.37,0,0,1,.91.48,2.32,2.32,0,0,1,.66.7,1.92,1.92,0,0,1,.25,1,2.51,2.51,0,0,1-.22,1.08,2.31,2.31,0,0,1-.61.8,2.78,2.78,0,0,1-.9.48,3.65,3.65,0,0,1-1.12.17,3.24,3.24,0,0,1-1.13-.2,2.65,2.65,0,0,1-1.54-1.47A3,3,0,0,1,264.25,116.72Z"/>
    <path class="cls-4" d="M270.62,114.82v-.88h1v-1.83h1v1.83h1.42v.88h-1.42v2.52a2.1,2.1,0,0,0,.07.63.77.77,0,0,0,.19.36.53.53,0,0,0,.28.16,2,2,0,0,0,.36,0l.38,0a1.42,1.42,0,0,0,.33,0v.91a3,3,0,0,1-.41,0,4.52,4.52,0,0,1-.52,0,3.78,3.78,0,0,1-.56,0,1.21,1.21,0,0,1-.56-.24,1.38,1.38,0,0,1-.43-.57,2.67,2.67,0,0,1-.17-1v-2.74Z"/>
    <path class="cls-4" d="M275.4,119.39v-5.45h1V115a1.77,1.77,0,0,1,.73-.83,2,2,0,0,1,1.08-.32,1.54,1.54,0,0,1,.52.08v1l-.27,0h-.25a1.58,1.58,0,0,0-1.36.59,2.49,2.49,0,0,0-.45,1.56v2.39Z"/>
    <path class="cls-4" d="M279.21,116.67a2.86,2.86,0,0,1,.21-1.09,2.78,2.78,0,0,1,.57-.93,2.65,2.65,0,0,1,.88-.62,2.87,2.87,0,0,1,1.14-.23,2.28,2.28,0,0,1,1.12.29,1.9,1.9,0,0,1,.79.8v-1h1v5.45h-1v-1a1.88,1.88,0,0,1-.78.8,2.32,2.32,0,0,1-1.13.29,2.87,2.87,0,0,1-1.14-.23,2.65,2.65,0,0,1-.88-.62,2.74,2.74,0,0,1-.57-.92A2.86,2.86,0,0,1,279.21,116.67Zm1,0a2.32,2.32,0,0,0,.13.75,1.84,1.84,0,0,0,.37.6,2,2,0,0,0,.57.42,1.79,1.79,0,0,0,.75.15,1.92,1.92,0,0,0,.77-.15,2.06,2.06,0,0,0,.58-.42,1.84,1.84,0,0,0,.37-.6,2.08,2.08,0,0,0,.13-.75,2,2,0,0,0-.13-.74,2,2,0,0,0-.37-.61,1.88,1.88,0,0,0-.58-.42,1.77,1.77,0,0,0-.77-.16,1.65,1.65,0,0,0-.75.16,1.83,1.83,0,0,0-.57.42,2,2,0,0,0-.37.61A2.26,2.26,0,0,0,280.25,116.67Z"/>
    <path class="cls-4" d="M286.12,114.82v-.88h1v-1.83h1v1.83h1.42v.88h-1.42v2.52a2.1,2.1,0,0,0,.07.63.76.76,0,0,0,.18.36.56.56,0,0,0,.29.16,1.88,1.88,0,0,0,.36,0l.38,0a1.42,1.42,0,0,0,.33,0v.91a3,3,0,0,1-.42,0,4.43,4.43,0,0,1-.52,0,3.74,3.74,0,0,1-.55,0,1.21,1.21,0,0,1-.56-.24,1.3,1.3,0,0,1-.43-.57,2.5,2.5,0,0,1-.17-1v-2.74Z"/>
    <path class="cls-4" d="M290.36,116.67a3.49,3.49,0,0,1,.18-1.14,2.55,2.55,0,0,1,.52-.91,2.31,2.31,0,0,1,.84-.6,3,3,0,0,1,1.15-.22,2.72,2.72,0,0,1,1,.19,2.31,2.31,0,0,1,.8.52,2.41,2.41,0,0,1,.54.79,2.35,2.35,0,0,1,.19,1c0,.08,0,.17,0,.29a2,2,0,0,1,0,.39H291.4a2.34,2.34,0,0,0,.11.66,1.78,1.78,0,0,0,.3.54,1.37,1.37,0,0,0,.51.37,1.93,1.93,0,0,0,.77.14,1.49,1.49,0,0,0,.93-.26,1.34,1.34,0,0,0,.44-.6h1.06a1.74,1.74,0,0,1-.26.65,2.08,2.08,0,0,1-.51.56,2.65,2.65,0,0,1-.73.38,2.75,2.75,0,0,1-.93.15,3,3,0,0,1-1.21-.23,2.44,2.44,0,0,1-.85-.61,2.47,2.47,0,0,1-.51-.91A3.68,3.68,0,0,1,290.36,116.67Zm1.05-.52h3.15A1.45,1.45,0,0,0,293,114.6a1.63,1.63,0,0,0-1.15.4A1.55,1.55,0,0,0,291.41,116.15Z"/>
    <path class="cls-4" d="M296.63,116.67a3.06,3.06,0,0,1,.2-1.09,2.8,2.8,0,0,1,.57-.92,2.55,2.55,0,0,1,.86-.63,2.77,2.77,0,0,1,1.12-.23,2.39,2.39,0,0,1,1.15.29,2,2,0,0,1,.81.8v-1h1v5.8a3.35,3.35,0,0,1-.2,1.25,2,2,0,0,1-.59.84,2.07,2.07,0,0,1-.93.48,4.63,4.63,0,0,1-1.24.15,3.3,3.3,0,0,1-1.19-.19,2.42,2.42,0,0,1-.83-.53,2.14,2.14,0,0,1-.5-.76,2.74,2.74,0,0,1-.2-.89h1a1.78,1.78,0,0,0,.14.55,1.28,1.28,0,0,0,.32.45,1.63,1.63,0,0,0,.53.32,2.54,2.54,0,0,0,2.17-.3,1.69,1.69,0,0,0,.51-1.38v-1.28a2,2,0,0,1-.8.79,2.43,2.43,0,0,1-1.16.29,2.77,2.77,0,0,1-1.12-.23,2.67,2.67,0,0,1-.86-.62,2.9,2.9,0,0,1-.57-.92A3,3,0,0,1,296.63,116.67Zm1,0a2.32,2.32,0,0,0,.13.75,2,2,0,0,0,.36.6,1.79,1.79,0,0,0,.55.42,1.73,1.73,0,0,0,.73.15,2,2,0,0,0,.79-.15,2,2,0,0,0,.59-.42,1.73,1.73,0,0,0,.39-.6,2.08,2.08,0,0,0,.13-.75,2,2,0,0,0-.13-.74,1.87,1.87,0,0,0-.39-.61,1.81,1.81,0,0,0-.59-.42,1.86,1.86,0,0,0-.79-.16,1.6,1.6,0,0,0-.73.16,1.65,1.65,0,0,0-.55.42,2.18,2.18,0,0,0-.36.61A2.26,2.26,0,0,0,297.67,116.67Z"/>
    <path class="cls-4" d="M303.9,111.88a.85.85,0,0,1,.24-.6.8.8,0,0,1,.59-.25.85.85,0,0,1,.85.85.82.82,0,0,1-.25.59.85.85,0,0,1-.6.24.82.82,0,0,1-.83-.83Zm.31,7.51v-5.45h1.05v5.45Z"/>
    <path class="cls-4" d="M306.7,116.67a3.25,3.25,0,0,1,.18-1.07,2.55,2.55,0,0,1,.51-.91,2.5,2.5,0,0,1,.85-.65,2.73,2.73,0,0,1,1.18-.24,3.14,3.14,0,0,1,1.13.19,2.34,2.34,0,0,1,.78.48,2,2,0,0,1,.47.68,2.62,2.62,0,0,1,.19.78h-1a1.39,1.39,0,0,0-.4-.85,1.9,1.9,0,0,0-1.85-.18,1.48,1.48,0,0,0-.53.43,2.08,2.08,0,0,0-.32.61,2.57,2.57,0,0,0-.1.73,2.48,2.48,0,0,0,.1.73,1.62,1.62,0,0,0,.32.61,1.54,1.54,0,0,0,.54.43,1.89,1.89,0,0,0,.79.15,1.52,1.52,0,0,0,1-.29,1.45,1.45,0,0,0,.45-.78H312a2.52,2.52,0,0,1-.25.79,2.21,2.21,0,0,1-.51.63,2.54,2.54,0,0,1-.78.43,3,3,0,0,1-1,.16,2.73,2.73,0,0,1-1.18-.24,2.48,2.48,0,0,1-.85-.64,2.43,2.43,0,0,1-.52-.91A3.25,3.25,0,0,1,306.7,116.67Z"/>
    <path class="cls-4" d="M261.44,133.79l2.89-8.4h.79l2.91,8.4h-1.15l-.45-1.29H263l-.44,1.29Zm1.92-2.28h2.74l-1.36-4.33Z"/>
    <path class="cls-4" d="M269,133.79v-8.4h1v8.4Z"/>
    <path class="cls-4" d="M271.62,126.28a.85.85,0,0,1,.24-.6.8.8,0,0,1,.59-.25.85.85,0,0,1,.85.85.82.82,0,0,1-.25.59.85.85,0,0,1-.6.24.82.82,0,0,1-.83-.83Zm.31,7.51v-5.45H273v5.45Z"/>
    <path class="cls-4" d="M274.4,131.07a3.06,3.06,0,0,1,.2-1.09,3,3,0,0,1,.56-.92,2.59,2.59,0,0,1,.87-.63,2.77,2.77,0,0,1,1.12-.23,2.39,2.39,0,0,1,1.15.29,1.9,1.9,0,0,1,.81.8v-.95h1v5.8a3.35,3.35,0,0,1-.2,1.25,2,2,0,0,1-.59.84,2.17,2.17,0,0,1-.93.48,4.63,4.63,0,0,1-1.24.15,3.3,3.3,0,0,1-1.19-.19,2.42,2.42,0,0,1-.83-.53,2.14,2.14,0,0,1-.5-.76,2.74,2.74,0,0,1-.2-.89h1a1.78,1.78,0,0,0,.14.55,1.28,1.28,0,0,0,.32.45,1.63,1.63,0,0,0,.53.32,2.54,2.54,0,0,0,2.17-.3,1.69,1.69,0,0,0,.51-1.38v-1.28a2,2,0,0,1-.8.79,2.43,2.43,0,0,1-1.16.29,2.77,2.77,0,0,1-1.12-.23,2.71,2.71,0,0,1-.87-.62,3.07,3.07,0,0,1-.56-.92A3,3,0,0,1,274.4,131.07Zm1,0a2.32,2.32,0,0,0,.13.75,2,2,0,0,0,.36.6,1.79,1.79,0,0,0,.55.42,1.73,1.73,0,0,0,.73.15,2,2,0,0,0,.79-.15,2,2,0,0,0,.59-.42,1.73,1.73,0,0,0,.39-.6,2.08,2.08,0,0,0,.13-.75,2,2,0,0,0-.13-.74,1.87,1.87,0,0,0-.39-.61,1.81,1.81,0,0,0-.59-.42,1.86,1.86,0,0,0-.79-.16,1.6,1.6,0,0,0-.73.16,1.65,1.65,0,0,0-.55.42,2.18,2.18,0,0,0-.36.61A2.26,2.26,0,0,0,275.44,131.07Z"/>
    <path class="cls-4" d="M282,133.79v-5.45h1v1a1.84,1.84,0,0,1,.73-.81,2.24,2.24,0,0,1,1.19-.31,2.41,2.41,0,0,1,1,.19,1.54,1.54,0,0,1,.65.53,1.94,1.94,0,0,1,.32.7,3.67,3.67,0,0,1,.1,1v3.21H286v-2.88a3.14,3.14,0,0,0-.07-.7,1.78,1.78,0,0,0-.23-.56,1.11,1.11,0,0,0-.43-.37,1.39,1.39,0,0,0-.65-.14,1.34,1.34,0,0,0-.68.16,1.46,1.46,0,0,0-.48.41,1.91,1.91,0,0,0-.29.59,2.69,2.69,0,0,0-.09.7v2.79Z"/>
    <path class="cls-4" d="M288.76,133.79v-5.45h1v1a1.72,1.72,0,0,1,.58-.79,1.56,1.56,0,0,1,1-.34,2,2,0,0,1,1.18.32,1.6,1.6,0,0,1,.57.86,2,2,0,0,1,.25-.45,2.4,2.4,0,0,1,.4-.38,1.8,1.8,0,0,1,.5-.25,2,2,0,0,1,.6-.1,2.29,2.29,0,0,1,.92.17,1.46,1.46,0,0,1,.6.46,1.8,1.8,0,0,1,.33.68,3.72,3.72,0,0,1,.1.84v3.44h-1v-3.12a1.84,1.84,0,0,0-.3-1.14,1,1,0,0,0-.86-.39,1.18,1.18,0,0,0-1,.47,2.3,2.3,0,0,0-.36,1.42v2.76h-1v-3a2,2,0,0,0-.29-1.21,1,1,0,0,0-.85-.39,1.18,1.18,0,0,0-1,.47,2.23,2.23,0,0,0-.38,1.42v2.76Z"/>
    <path class="cls-4" d="M298.22,131.07a3.25,3.25,0,0,1,.19-1.14,2.55,2.55,0,0,1,.52-.91,2.31,2.31,0,0,1,.84-.6,3,3,0,0,1,1.15-.22,2.72,2.72,0,0,1,1,.19,2.31,2.31,0,0,1,.8.52,2.41,2.41,0,0,1,.54.79,2.53,2.53,0,0,1,.19,1c0,.08,0,.17,0,.29a2,2,0,0,1,0,.39h-4.12a2.34,2.34,0,0,0,.11.66,1.78,1.78,0,0,0,.3.54,1.37,1.37,0,0,0,.51.37,1.93,1.93,0,0,0,.77.14,1.44,1.44,0,0,0,.92-.26,1.29,1.29,0,0,0,.45-.6h1.06a1.74,1.74,0,0,1-.26.65,2.08,2.08,0,0,1-.51.56,2.65,2.65,0,0,1-.73.38,2.75,2.75,0,0,1-.93.15,3,3,0,0,1-1.21-.23,2.44,2.44,0,0,1-.85-.61,2.47,2.47,0,0,1-.51-.91A3.68,3.68,0,0,1,298.22,131.07Zm1.06-.52h3.15a1.51,1.51,0,0,0-.43-1.14,1.54,1.54,0,0,0-1.1-.42,1.63,1.63,0,0,0-1.15.41A1.51,1.51,0,0,0,299.28,130.55Z"/>
    <path class="cls-4" d="M305,133.79v-5.45h1v1a1.84,1.84,0,0,1,.73-.81,2.27,2.27,0,0,1,1.19-.31,2.41,2.41,0,0,1,1,.19,1.54,1.54,0,0,1,.65.53,1.94,1.94,0,0,1,.32.7,3.67,3.67,0,0,1,.1,1v3.21h-1v-2.88a3.13,3.13,0,0,0-.08-.7,1.41,1.41,0,0,0-.23-.56,1.15,1.15,0,0,0-.42-.37,1.46,1.46,0,0,0-.66-.14,1.34,1.34,0,0,0-.68.16,1.46,1.46,0,0,0-.48.41,1.91,1.91,0,0,0-.29.59,2.69,2.69,0,0,0-.09.7v2.79Z"/>
    <path class="cls-4" d="M311,129.22v-.88h1v-1.83h1.05v1.83h1.42v.88h-1.42v2.52a2.1,2.1,0,0,0,.07.63.76.76,0,0,0,.18.36.57.57,0,0,0,.28.16,2,2,0,0,0,.37,0l.38,0a1.42,1.42,0,0,0,.33,0v.91a3.23,3.23,0,0,1-.42.05,4.43,4.43,0,0,1-.52,0,3.65,3.65,0,0,1-.55,0,1.21,1.21,0,0,1-.56-.24,1.3,1.3,0,0,1-.43-.57,2.48,2.48,0,0,1-.18-1v-2.74Z"/>
  </g>
  <g id="poly3-2" data-name="poly3">
    <path class="cls-4" d="M268.29,237.19v-8.4h2.86a3.06,3.06,0,0,1,1.26.22,2.11,2.11,0,0,1,.79.55,2,2,0,0,1,.4.72,3,3,0,0,1,.11.76,2,2,0,0,1-.13.71,1.73,1.73,0,0,1-.33.56,2,2,0,0,1-.48.4,1.7,1.7,0,0,1-.56.23,1.43,1.43,0,0,1,.52.15,2,2,0,0,1,1,1.77,2.73,2.73,0,0,1-.12.77,2.12,2.12,0,0,1-.42.76,2.31,2.31,0,0,1-.8.57,3.12,3.12,0,0,1-1.26.23Zm1.09-4.73h1.8a1.74,1.74,0,0,0,.69-.12,1.37,1.37,0,0,0,.44-.33,1.31,1.31,0,0,0,.24-.43,1.5,1.5,0,0,0,.07-.45,1.51,1.51,0,0,0-.07-.46,1.31,1.31,0,0,0-.24-.43,1.1,1.1,0,0,0-.45-.33,1.62,1.62,0,0,0-.7-.14h-1.78Zm0,3.75h1.84a1.77,1.77,0,0,0,.69-.13,1.31,1.31,0,0,0,.46-.32,1.23,1.23,0,0,0,.24-.45,1.59,1.59,0,0,0,.07-.48,1.51,1.51,0,0,0-.07-.46,1.17,1.17,0,0,0-.26-.44,1.42,1.42,0,0,0-.44-.35,1.47,1.47,0,0,0-.66-.13h-1.87Z"/>
    <path class="cls-4" d="M275.27,235v-3.22h1.05v2.88a3.08,3.08,0,0,0,.07.7,1.57,1.57,0,0,0,.23.56,1.15,1.15,0,0,0,.42.37,1.39,1.39,0,0,0,.65.14,1.52,1.52,0,0,0,.69-.15,1.46,1.46,0,0,0,.48-.41,1.91,1.91,0,0,0,.29-.59,2.71,2.71,0,0,0,.09-.71v-2.79h1.05v5.45h-1.05v-1a1.84,1.84,0,0,1-.73.81,2.28,2.28,0,0,1-1.18.31,2.5,2.5,0,0,1-1-.19,1.65,1.65,0,0,1-.66-.52,1.94,1.94,0,0,1-.32-.7A4.35,4.35,0,0,1,275.27,235Z"/>
    <path class="cls-4" d="M281.72,235.36h1a1,1,0,0,0,.38.88,1.73,1.73,0,0,0,1,.25,1.36,1.36,0,0,0,.75-.18.67.67,0,0,0,.27-.6.52.52,0,0,0-.12-.36.91.91,0,0,0-.34-.25,5.12,5.12,0,0,0-.54-.21l-.74-.22-.58-.2a1.67,1.67,0,0,1-.47-.28,1.27,1.27,0,0,1-.31-.41,1.39,1.39,0,0,1-.11-.61,1.34,1.34,0,0,1,.16-.68,1.29,1.29,0,0,1,.44-.49,2.28,2.28,0,0,1,.67-.3,3.15,3.15,0,0,1,.83-.1,2.36,2.36,0,0,1,.8.13,2,2,0,0,1,.65.38,1.76,1.76,0,0,1,.43.58,1.64,1.64,0,0,1,.16.74h-.93a.93.93,0,0,0-.29-.74,1.28,1.28,0,0,0-.86-.26,1.35,1.35,0,0,0-.75.2.61.61,0,0,0-.3.56.59.59,0,0,0,.09.34.76.76,0,0,0,.31.23,3,3,0,0,0,.49.19l.67.21.62.2a2.33,2.33,0,0,1,.52.28,1.21,1.21,0,0,1,.37.41,1.24,1.24,0,0,1,.14.64,1.53,1.53,0,0,1-.16.72,1.38,1.38,0,0,1-.43.5,2,2,0,0,1-.66.31,3.24,3.24,0,0,1-1.71,0,2.24,2.24,0,0,1-.74-.37,1.69,1.69,0,0,1-.5-.62A1.84,1.84,0,0,1,281.72,235.36Z"/>
    <path class="cls-4" d="M287.27,229.68a.85.85,0,0,1,.24-.6.76.76,0,0,1,.59-.25.82.82,0,0,1,.6.25.86.86,0,0,1,.25.6.79.79,0,0,1-.25.58.82.82,0,0,1-.6.25.84.84,0,0,1-.83-.83Zm.31,7.51v-5.45h1.05v5.45Z"/>
    <path class="cls-4" d="M290.49,237.19v-5.45h1.05v1a1.92,1.92,0,0,1,.73-.82,2.56,2.56,0,0,1,2.17-.11,1.54,1.54,0,0,1,.65.53,1.94,1.94,0,0,1,.32.7,3.64,3.64,0,0,1,.1.95v3.22h-1v-2.88a3.13,3.13,0,0,0-.08-.7,1.5,1.5,0,0,0-.23-.56,1.15,1.15,0,0,0-.42-.37,1.57,1.57,0,0,0-1.34,0,1.46,1.46,0,0,0-.48.41,1.91,1.91,0,0,0-.29.59,2.61,2.61,0,0,0-.09.69v2.8Z"/>
    <path class="cls-4" d="M296.85,234.47a3.49,3.49,0,0,1,.18-1.14,2.61,2.61,0,0,1,.53-.92,2.47,2.47,0,0,1,.84-.6,2.91,2.91,0,0,1,1.15-.21,2.53,2.53,0,0,1,1,.19,2.26,2.26,0,0,1,.8.52,2.35,2.35,0,0,1,.53.78,2.4,2.4,0,0,1,.2,1c0,.07,0,.17,0,.28a3.18,3.18,0,0,1,0,.4H297.9a2,2,0,0,0,.11.65,1.72,1.72,0,0,0,.3.55,1.4,1.4,0,0,0,.51.37,1.91,1.91,0,0,0,.76.14,1.34,1.34,0,0,0,1.38-.86H302a2,2,0,0,1-.26.65,2,2,0,0,1-.51.55,2.67,2.67,0,0,1-.73.39,2.77,2.77,0,0,1-.94.15,3,3,0,0,1-1.2-.23,2.6,2.6,0,0,1-.86-.62,2.47,2.47,0,0,1-.5-.9A3.68,3.68,0,0,1,296.85,234.47Zm1.06-.52h3.15a1.47,1.47,0,0,0-1.53-1.56,1.66,1.66,0,0,0-1.16.41A1.54,1.54,0,0,0,297.91,234Z"/>
    <path class="cls-4" d="M303.13,235.36h1a1,1,0,0,0,.38.88,1.73,1.73,0,0,0,1,.25,1.36,1.36,0,0,0,.75-.18.67.67,0,0,0,.27-.6.52.52,0,0,0-.12-.36.91.91,0,0,0-.34-.25,5.12,5.12,0,0,0-.54-.21l-.74-.22-.58-.2a1.67,1.67,0,0,1-.47-.28,1.27,1.27,0,0,1-.31-.41,1.39,1.39,0,0,1-.11-.61,1.34,1.34,0,0,1,.16-.68,1.38,1.38,0,0,1,.44-.49,2.28,2.28,0,0,1,.67-.3,3.15,3.15,0,0,1,.83-.1,2.36,2.36,0,0,1,.8.13,2,2,0,0,1,.65.38,1.76,1.76,0,0,1,.43.58,1.64,1.64,0,0,1,.16.74h-.93a.93.93,0,0,0-.29-.74,1.28,1.28,0,0,0-.86-.26,1.35,1.35,0,0,0-.75.2.61.61,0,0,0-.3.56.59.59,0,0,0,.09.34.76.76,0,0,0,.31.23,3,3,0,0,0,.49.19l.67.21.62.2a2.33,2.33,0,0,1,.52.28,1.21,1.21,0,0,1,.37.41,1.24,1.24,0,0,1,.14.64,1.53,1.53,0,0,1-.16.72,1.38,1.38,0,0,1-.43.5,2,2,0,0,1-.66.31,3.24,3.24,0,0,1-1.71,0,2.24,2.24,0,0,1-.74-.37,1.69,1.69,0,0,1-.5-.62A1.84,1.84,0,0,1,303.13,235.36Z"/>
    <path class="cls-4" d="M308.55,235.36h1a1,1,0,0,0,.38.88,1.73,1.73,0,0,0,1,.25,1.36,1.36,0,0,0,.75-.18.67.67,0,0,0,.27-.6.52.52,0,0,0-.12-.36.91.91,0,0,0-.34-.25,5.12,5.12,0,0,0-.54-.21l-.74-.22-.58-.2a1.67,1.67,0,0,1-.47-.28,1.27,1.27,0,0,1-.31-.41,1.39,1.39,0,0,1-.11-.61,1.34,1.34,0,0,1,.16-.68,1.38,1.38,0,0,1,.44-.49,2.28,2.28,0,0,1,.67-.3,3.15,3.15,0,0,1,.83-.1,2.36,2.36,0,0,1,.8.13,2,2,0,0,1,.65.38,1.76,1.76,0,0,1,.43.58,1.64,1.64,0,0,1,.16.74h-.93a.93.93,0,0,0-.29-.74,1.28,1.28,0,0,0-.86-.26,1.35,1.35,0,0,0-.75.2.61.61,0,0,0-.3.56.59.59,0,0,0,.09.34.76.76,0,0,0,.31.23,3,3,0,0,0,.49.19l.67.21.62.2a2.33,2.33,0,0,1,.52.28,1.21,1.21,0,0,1,.37.41,1.24,1.24,0,0,1,.14.64,1.53,1.53,0,0,1-.16.72,1.38,1.38,0,0,1-.43.5,2,2,0,0,1-.66.31,3.24,3.24,0,0,1-1.71,0,2.24,2.24,0,0,1-.74-.37,1.69,1.69,0,0,1-.5-.62A1.84,1.84,0,0,1,308.55,235.36Z"/>
    <path class="cls-4" d="M253.43,251.59v-8.4h2.95a2.84,2.84,0,0,1,1.19.23,2.73,2.73,0,0,1,1.48,1.53,3,3,0,0,1,0,2.19,2.62,2.62,0,0,1-.58.91,2.73,2.73,0,0,1-.9.62,2.87,2.87,0,0,1-1.19.23h-1.86v2.69Zm1.09-3.67h1.86a1.73,1.73,0,0,0,1.3-.55,1.66,1.66,0,0,0,.36-.6,2,2,0,0,0,.13-.72,1.87,1.87,0,0,0-.13-.71,1.66,1.66,0,0,0-.36-.6,1.54,1.54,0,0,0-.56-.41,1.64,1.64,0,0,0-.74-.16h-1.86Z"/>
    <path class="cls-4" d="M260.52,251.59v-5.45h1v1.07a1.78,1.78,0,0,1,.73-.83,1.94,1.94,0,0,1,1.08-.32,1.54,1.54,0,0,1,.52.08v1l-.27,0-.25,0a1.61,1.61,0,0,0-1.36.59,2.54,2.54,0,0,0-.45,1.57v2.39Z"/>
    <path class="cls-4" d="M264.17,248.87a3,3,0,0,1,.79-2,2.73,2.73,0,0,1,.9-.62,3.17,3.17,0,0,1,2.37,0,2.88,2.88,0,0,1,.91.62,3,3,0,0,1,.79,2,2.86,2.86,0,0,1-.21,1.09,2.77,2.77,0,0,1-1.49,1.54,3,3,0,0,1-1.19.23,3,3,0,0,1-1.18-.23,2.61,2.61,0,0,1-.9-.63,2.78,2.78,0,0,1-.58-.91A2.86,2.86,0,0,1,264.17,248.87Zm1.05,0a2,2,0,0,0,.13.74,2.18,2.18,0,0,0,.36.61,1.81,1.81,0,0,0,.57.41,1.7,1.7,0,0,0,.76.16,1.84,1.84,0,0,0,1.34-.57,1.82,1.82,0,0,0,.37-.61,2,2,0,0,0,.14-.74,2,2,0,0,0-.14-.74,1.72,1.72,0,0,0-.37-.61,1.63,1.63,0,0,0-.58-.42,1.73,1.73,0,0,0-.76-.16,1.75,1.75,0,0,0-1.33.58,2,2,0,0,0-.36.61A2,2,0,0,0,265.22,248.87Z"/>
    <path class="cls-4" d="M270.91,248.87a3.52,3.52,0,0,1,.17-1.07,2.88,2.88,0,0,1,.52-.92,2.61,2.61,0,0,1,.85-.64,2.73,2.73,0,0,1,1.18-.24,3,3,0,0,1,1.13.19,2.49,2.49,0,0,1,.78.47,2.13,2.13,0,0,1,.47.68,2.78,2.78,0,0,1,.19.78h-1a1.39,1.39,0,0,0-.4-.84,1.52,1.52,0,0,0-1.11-.34,1.58,1.58,0,0,0-.74.16,1.46,1.46,0,0,0-.53.42,2.14,2.14,0,0,0-.32.62,2.52,2.52,0,0,0-.1.73,2.48,2.48,0,0,0,.1.73,1.7,1.7,0,0,0,.32.61,1.41,1.41,0,0,0,.54.42,1.74,1.74,0,0,0,.79.16,1.52,1.52,0,0,0,1-.29,1.55,1.55,0,0,0,.45-.78h1.05a2.7,2.7,0,0,1-.25.79,2.21,2.21,0,0,1-.51.63,2.54,2.54,0,0,1-.78.43,3.29,3.29,0,0,1-1,.16,2.73,2.73,0,0,1-1.18-.24,2.61,2.61,0,0,1-.85-.64,2.64,2.64,0,0,1-.53-.92A3.41,3.41,0,0,1,270.91,248.87Z"/>
    <path class="cls-4" d="M277.2,248.87a3.49,3.49,0,0,1,.18-1.14,2.76,2.76,0,0,1,.52-.92,2.57,2.57,0,0,1,.84-.6,3,3,0,0,1,1.16-.21,2.53,2.53,0,0,1,1,.19,2.26,2.26,0,0,1,.8.52,2.5,2.5,0,0,1,.53.78,2.4,2.4,0,0,1,.19,1v.28c0,.12,0,.25,0,.4h-4.13a2.27,2.27,0,0,0,.12.65,1.55,1.55,0,0,0,.3.55,1.4,1.4,0,0,0,.51.37,1.88,1.88,0,0,0,.76.14,1.34,1.34,0,0,0,1.38-.86h1.06a2,2,0,0,1-.27.65,1.86,1.86,0,0,1-.5.55,2.67,2.67,0,0,1-.73.39,2.77,2.77,0,0,1-.94.15,3,3,0,0,1-1.2-.23,2.5,2.5,0,0,1-.86-.62,2.47,2.47,0,0,1-.5-.9A3.39,3.39,0,0,1,277.2,248.87Zm1.05-.52h3.16a1.47,1.47,0,0,0-1.54-1.56,1.65,1.65,0,0,0-1.15.41A1.58,1.58,0,0,0,278.25,248.35Z"/>
    <path class="cls-4" d="M283.48,249.76h1a1,1,0,0,0,.39.88,1.73,1.73,0,0,0,1,.25,1.33,1.33,0,0,0,.74-.18.65.65,0,0,0,.28-.6.52.52,0,0,0-.12-.36.91.91,0,0,0-.34-.25,4.6,4.6,0,0,0-.55-.21l-.73-.22c-.21-.06-.4-.13-.58-.2a1.67,1.67,0,0,1-.47-.28,1.14,1.14,0,0,1-.31-.41,1.39,1.39,0,0,1-.11-.61,1.34,1.34,0,0,1,.16-.68,1.29,1.29,0,0,1,.44-.49,2.17,2.17,0,0,1,.67-.3,3.12,3.12,0,0,1,.82-.1,2.37,2.37,0,0,1,.81.13,2,2,0,0,1,.65.38,1.76,1.76,0,0,1,.43.58,1.64,1.64,0,0,1,.16.74h-.93a1,1,0,0,0-.29-.74,1.3,1.3,0,0,0-.86-.26,1.36,1.36,0,0,0-.76.2.63.63,0,0,0-.3.56.6.6,0,0,0,.1.34.76.76,0,0,0,.31.23,3,3,0,0,0,.49.19l.67.21.61.2a2.41,2.41,0,0,1,.53.28,1.32,1.32,0,0,1,.37.41,1.35,1.35,0,0,1,.14.64,1.53,1.53,0,0,1-.16.72,1.38,1.38,0,0,1-.43.5,2,2,0,0,1-.66.31,3.14,3.14,0,0,1-.83.11,3.24,3.24,0,0,1-.89-.12,2.19,2.19,0,0,1-.73-.37,1.83,1.83,0,0,1-.51-.62A2,2,0,0,1,283.48,249.76Z"/>
    <path class="cls-4" d="M288.9,249.76h1a1,1,0,0,0,.39.88,1.73,1.73,0,0,0,1,.25,1.33,1.33,0,0,0,.74-.18.65.65,0,0,0,.28-.6.52.52,0,0,0-.12-.36.91.91,0,0,0-.34-.25,4.6,4.6,0,0,0-.55-.21l-.73-.22c-.21-.06-.4-.13-.58-.2a1.67,1.67,0,0,1-.47-.28,1.14,1.14,0,0,1-.31-.41,1.39,1.39,0,0,1-.11-.61,1.34,1.34,0,0,1,.16-.68,1.29,1.29,0,0,1,.44-.49,2.17,2.17,0,0,1,.67-.3,3.12,3.12,0,0,1,.82-.1,2.37,2.37,0,0,1,.81.13,2,2,0,0,1,.65.38,1.76,1.76,0,0,1,.43.58,1.78,1.78,0,0,1,.16.74h-.93a1,1,0,0,0-.29-.74,1.3,1.3,0,0,0-.86-.26,1.36,1.36,0,0,0-.76.2.63.63,0,0,0-.3.56.6.6,0,0,0,.1.34.76.76,0,0,0,.31.23,3,3,0,0,0,.49.19l.67.21.61.2a2.41,2.41,0,0,1,.53.28,1.32,1.32,0,0,1,.37.41,1.35,1.35,0,0,1,.14.64,1.53,1.53,0,0,1-.16.72,1.38,1.38,0,0,1-.43.5,2,2,0,0,1-.66.31,3.14,3.14,0,0,1-.83.11,3.24,3.24,0,0,1-.89-.12,2.19,2.19,0,0,1-.73-.37,1.83,1.83,0,0,1-.51-.62A2,2,0,0,1,288.9,249.76Z"/>
    <path class="cls-4" d="M297.8,251.59v-8.4h4.71v1h-3.62v3h3.62v1h-3.62v3.43Z"/>
    <path class="cls-4" d="M303.57,248.87a3,3,0,0,1,.21-1.1,2.76,2.76,0,0,1,.58-.92,2.73,2.73,0,0,1,.9-.62,2.94,2.94,0,0,1,1.17-.23,3,3,0,0,1,1.2.23,2.88,2.88,0,0,1,.91.62,3,3,0,0,1,.79,2,2.86,2.86,0,0,1-.21,1.09,2.77,2.77,0,0,1-1.49,1.54,3,3,0,0,1-1.2.23,2.94,2.94,0,0,1-1.17-.23,2.52,2.52,0,0,1-.9-.63,2.62,2.62,0,0,1-.58-.91A2.86,2.86,0,0,1,303.57,248.87Zm1.05,0a2,2,0,0,0,.13.74,2,2,0,0,0,.36.61,1.81,1.81,0,0,0,.57.41,1.65,1.65,0,0,0,.75.16,1.84,1.84,0,0,0,1.35-.57,2,2,0,0,0,.37-.61,2,2,0,0,0,.13-.74,2,2,0,0,0-.13-.74,1.88,1.88,0,0,0-.37-.61,1.63,1.63,0,0,0-.58-.42,1.74,1.74,0,0,0-.77-.16,1.65,1.65,0,0,0-.75.16,1.69,1.69,0,0,0-.57.42,1.86,1.86,0,0,0-.36.61A2,2,0,0,0,304.62,248.87Z"/>
    <path class="cls-4" d="M310.31,248.87a3.52,3.52,0,0,1,.17-1.07,2.88,2.88,0,0,1,.52-.92,2.61,2.61,0,0,1,.85-.64A2.72,2.72,0,0,1,313,246a3,3,0,0,1,1.14.19,2.49,2.49,0,0,1,.78.47,2,2,0,0,1,.46.68,2.49,2.49,0,0,1,.2.78h-1a1.39,1.39,0,0,0-.4-.84,1.52,1.52,0,0,0-1.11-.34,1.58,1.58,0,0,0-.74.16,1.46,1.46,0,0,0-.53.42,1.92,1.92,0,0,0-.32.62,2.53,2.53,0,0,0-.11.73,2.48,2.48,0,0,0,.11.73,1.56,1.56,0,0,0,.32.61,1.41,1.41,0,0,0,.54.42,1.74,1.74,0,0,0,.79.16,1.52,1.52,0,0,0,1-.29,1.55,1.55,0,0,0,.45-.78h1a2.43,2.43,0,0,1-.25.79,1.92,1.92,0,0,1-.51.63,2.49,2.49,0,0,1-.77.43,3.34,3.34,0,0,1-1,.16,2.7,2.7,0,0,1-1.18-.24,2.57,2.57,0,0,1-1.38-1.56A3.41,3.41,0,0,1,310.31,248.87Z"/>
    <path class="cls-4" d="M317,249.36v-3.22h1V249a3.08,3.08,0,0,0,.07.7,1.58,1.58,0,0,0,.24.56,1,1,0,0,0,.42.37,1.35,1.35,0,0,0,.64.14,1.47,1.47,0,0,0,.69-.15,1.4,1.4,0,0,0,.49-.41,1.89,1.89,0,0,0,.28-.59,2.34,2.34,0,0,0,.1-.71v-2.79h1v5.45h-1v-1a1.87,1.87,0,0,1-.74.81,2.23,2.23,0,0,1-1.18.31,2.5,2.5,0,0,1-1-.19,1.69,1.69,0,0,1-.65-.52,1.79,1.79,0,0,1-.32-.7A4.35,4.35,0,0,1,317,249.36Z"/>
    <path class="cls-4" d="M323.41,249.76h1a1,1,0,0,0,.39.88,1.71,1.71,0,0,0,1,.25,1.33,1.33,0,0,0,.74-.18.65.65,0,0,0,.28-.6.52.52,0,0,0-.12-.36,1,1,0,0,0-.34-.25,4.6,4.6,0,0,0-.55-.21l-.73-.22c-.21-.06-.4-.13-.58-.2a1.54,1.54,0,0,1-.47-.28,1.14,1.14,0,0,1-.31-.41,1.38,1.38,0,0,1-.12-.61,1.45,1.45,0,0,1,.16-.68,1.41,1.41,0,0,1,.45-.49,2.17,2.17,0,0,1,.67-.3,3.07,3.07,0,0,1,.82-.1,2.37,2.37,0,0,1,.81.13,2.1,2.1,0,0,1,.65.38,1.91,1.91,0,0,1,.43.58,1.78,1.78,0,0,1,.15.74h-.92a.92.92,0,0,0-.3-.74,1.25,1.25,0,0,0-.85-.26,1.36,1.36,0,0,0-.76.2.63.63,0,0,0-.3.56.53.53,0,0,0,.1.34.8.8,0,0,0,.3.23,3.35,3.35,0,0,0,.49.19l.68.21.61.2a2.41,2.41,0,0,1,.53.28,1.45,1.45,0,0,1,.37.41,1.35,1.35,0,0,1,.14.64,1.66,1.66,0,0,1-.16.72,1.41,1.41,0,0,1-.44.5,1.84,1.84,0,0,1-.66.31,3,3,0,0,1-.82.11,3.19,3.19,0,0,1-.89-.12,2.19,2.19,0,0,1-.73-.37,1.83,1.83,0,0,1-.51-.62A2,2,0,0,1,323.41,249.76Z"/>
  </g>
  <g id="poly4-2" data-name="poly4">
    <path class="cls-4" d="M157.17,294.72a4.54,4.54,0,0,1,.3-1.64,4.42,4.42,0,0,1,.86-1.41,4.15,4.15,0,0,1,1.37-1,4.61,4.61,0,0,1,3.62,0,4.1,4.1,0,0,1,1.36,1,4.42,4.42,0,0,1,.86,1.41,4.63,4.63,0,0,1,0,3.28,4.42,4.42,0,0,1-.86,1.41,4.13,4.13,0,0,1-1.36,1,4.73,4.73,0,0,1-3.62,0,4.17,4.17,0,0,1-1.37-1,4.48,4.48,0,0,1-.86-1.4A4.64,4.64,0,0,1,157.17,294.72Zm1.15,0a3.85,3.85,0,0,0,.22,1.27,3.41,3.41,0,0,0,.64,1.09,3.12,3.12,0,0,0,1,.76,3,3,0,0,0,1.33.29,3.05,3.05,0,0,0,1.33-.29,3,3,0,0,0,1-.76,3.58,3.58,0,0,0,.63-1.09,3.85,3.85,0,0,0,.22-1.27,4,4,0,0,0-.22-1.28,3.58,3.58,0,0,0-.63-1.09,3,3,0,0,0-1-.75,3.05,3.05,0,0,0-1.33-.29,3,3,0,0,0-1.33.29,3.1,3.1,0,0,0-1,.75,3.41,3.41,0,0,0-.64,1.09A4,4,0,0,0,158.32,294.72Z"/>
    <path class="cls-4" d="M167.25,301.87v-8.4h1v.94a2,2,0,0,1,.78-.79,2.28,2.28,0,0,1,1.12-.29,2.83,2.83,0,0,1,1.14.23,2.46,2.46,0,0,1,.89.62,3.09,3.09,0,0,1,.57.92,3,3,0,0,1,.21,1.1,3,3,0,0,1-.78,2,2.61,2.61,0,0,1-.89.63,2.83,2.83,0,0,1-1.14.23,2.21,2.21,0,0,1-1.12-.3,1.91,1.91,0,0,1-.78-.79v3.9Zm1-5.67a2.26,2.26,0,0,0,.13.74,2,2,0,0,0,.38.61,1.84,1.84,0,0,0,1.34.57,1.64,1.64,0,0,0,.74-.16,1.74,1.74,0,0,0,.58-.41,2.18,2.18,0,0,0,.36-.61,2,2,0,0,0,.13-.74,2,2,0,0,0-.13-.74,2,2,0,0,0-.36-.61,1.79,1.79,0,0,0-1.32-.58,1.7,1.7,0,0,0-.76.16,1.63,1.63,0,0,0-.58.42,1.91,1.91,0,0,0-.38.61A2.26,2.26,0,0,0,168.29,296.2Z"/>
    <path class="cls-4" d="M174,296.2a3.49,3.49,0,0,1,.18-1.14,2.61,2.61,0,0,1,.53-.92,2.38,2.38,0,0,1,.84-.6,2.91,2.91,0,0,1,1.15-.21,2.72,2.72,0,0,1,1,.18,2.43,2.43,0,0,1,.8.53,2.35,2.35,0,0,1,.53.78,2.4,2.4,0,0,1,.2,1c0,.07,0,.17,0,.28a3.18,3.18,0,0,1,0,.4h-4.13a2.27,2.27,0,0,0,.12.65,1.72,1.72,0,0,0,.3.55,1.4,1.4,0,0,0,.51.37,1.88,1.88,0,0,0,.76.14,1.45,1.45,0,0,0,.93-.26,1.41,1.41,0,0,0,.45-.61h1.06a2.22,2.22,0,0,1-.26.66,2,2,0,0,1-.51.55,2.67,2.67,0,0,1-.73.39,2.77,2.77,0,0,1-.94.15,3,3,0,0,1-1.2-.23,2.5,2.5,0,0,1-.86-.62,2.47,2.47,0,0,1-.5-.9A3.68,3.68,0,0,1,174,296.2Zm1.06-.52h3.15a1.47,1.47,0,0,0-1.53-1.56,1.66,1.66,0,0,0-1.16.41A1.54,1.54,0,0,0,175.07,295.68Z"/>
    <path class="cls-4" d="M180.73,298.92v-5.45h1v1.07a1.78,1.78,0,0,1,.73-.83,1.94,1.94,0,0,1,1.08-.32,1.54,1.54,0,0,1,.52.08v1a1.76,1.76,0,0,0-.27,0l-.25,0a1.62,1.62,0,0,0-1.36.59,2.52,2.52,0,0,0-.45,1.57v2.39Z"/>
    <path class="cls-4" d="M184.55,296.2a2.94,2.94,0,0,1,.2-1.1,3.09,3.09,0,0,1,.57-.92,2.55,2.55,0,0,1,.89-.62,2.8,2.8,0,0,1,1.14-.23,2.31,2.31,0,0,1,1.12.29,1.94,1.94,0,0,1,.79.79v-.94h1v5.45h-1V298a1.88,1.88,0,0,1-.79.79,2.19,2.19,0,0,1-1.12.3,2.8,2.8,0,0,1-1.14-.23,2.71,2.71,0,0,1-.89-.63,2.92,2.92,0,0,1-.57-.91A2.89,2.89,0,0,1,184.55,296.2Zm1,0a2,2,0,0,0,.13.74,2,2,0,0,0,.37.61,1.66,1.66,0,0,0,.56.41,1.85,1.85,0,0,0,2.1-.41,1.82,1.82,0,0,0,.37-.61,2,2,0,0,0,.14-.74,2,2,0,0,0-.14-.74,1.72,1.72,0,0,0-.37-.61,1.63,1.63,0,0,0-.58-.42,1.89,1.89,0,0,0-1.52,0,1.56,1.56,0,0,0-.56.42,1.88,1.88,0,0,0-.37.61A2,2,0,0,0,185.59,296.2Z"/>
    <path class="cls-4" d="M191.45,294.35v-.88h1v-1.83h1v1.83h1.42v.88H193.5v2.52a2.61,2.61,0,0,0,.07.63,1,1,0,0,0,.19.36.61.61,0,0,0,.28.16,2.05,2.05,0,0,0,.37,0h.37l.34,0v.91l-.42.05-.52,0a4,4,0,0,1-.56-.05,1.27,1.27,0,0,1-.55-.23,1.45,1.45,0,0,1-.44-.57,2.74,2.74,0,0,1-.17-1.05v-2.74Z"/>
    <path class="cls-4" d="M195.91,291.41a.85.85,0,0,1,.24-.6.78.78,0,0,1,.59-.25.8.8,0,0,1,.6.25.82.82,0,0,1,.25.6.76.76,0,0,1-.25.58.83.83,0,0,1-.6.24.78.78,0,0,1-.58-.24A.76.76,0,0,1,195.91,291.41Zm.32,7.51v-5.45h1v5.45Z"/>
    <path class="cls-4" d="M199.14,298.92v-5.45h1v1a2,2,0,0,1,.74-.82,2.21,2.21,0,0,1,1.19-.3,2.42,2.42,0,0,1,1,.18,1.72,1.72,0,0,1,.65.54,1.94,1.94,0,0,1,.32.7,4.13,4.13,0,0,1,.1.95v3.22h-1V296a3.14,3.14,0,0,0-.07-.7,1.69,1.69,0,0,0-.23-.56,1.11,1.11,0,0,0-.43-.37,1.28,1.28,0,0,0-.65-.14,1.34,1.34,0,0,0-.68.16,1.36,1.36,0,0,0-.48.41,1.91,1.91,0,0,0-.29.59,2.61,2.61,0,0,0-.1.69v2.8Z"/>
    <path class="cls-4" d="M205.48,296.2a2.94,2.94,0,0,1,.2-1.1,2.88,2.88,0,0,1,.56-.92,2.6,2.6,0,0,1,.87-.62,2.73,2.73,0,0,1,1.12-.23,2.42,2.42,0,0,1,1.15.29,1.93,1.93,0,0,1,.81.79v-.94h1v5.8a3.5,3.5,0,0,1-.2,1.24,2.2,2.2,0,0,1-.59.85,2.42,2.42,0,0,1-.93.48,4.68,4.68,0,0,1-1.24.15,3.06,3.06,0,0,1-1.19-.2,2.35,2.35,0,0,1-.84-.52,2.39,2.39,0,0,1-.5-.76,2.78,2.78,0,0,1-.19-.89h1a1.64,1.64,0,0,0,.13.54,1.36,1.36,0,0,0,.32.46,1.42,1.42,0,0,0,.54.31,2.13,2.13,0,0,0,.76.12,2.16,2.16,0,0,0,1.41-.42,1.67,1.67,0,0,0,.51-1.37V298a2,2,0,0,1-.81.8,2.39,2.39,0,0,1-1.15.29,2.73,2.73,0,0,1-1.12-.23,2.63,2.63,0,0,1-.87-.63,2.73,2.73,0,0,1-.56-.91A2.85,2.85,0,0,1,205.48,296.2Zm1,0a2,2,0,0,0,.13.74,1.94,1.94,0,0,0,.35.61,1.66,1.66,0,0,0,.56.41,1.6,1.6,0,0,0,.73.16,1.78,1.78,0,0,0,.78-.16,1.73,1.73,0,0,0,.6-.41,2,2,0,0,0,.52-1.35,2,2,0,0,0-.14-.74,1.91,1.91,0,0,0-.38-.61,1.63,1.63,0,0,0-.6-.42,1.78,1.78,0,0,0-.78-.16,1.64,1.64,0,0,0-.74.16,1.62,1.62,0,0,0-.55.42,1.84,1.84,0,0,0-.35.61A2,2,0,0,0,206.52,296.2Z"/>
    <path class="cls-4" d="M143,313.32v-8.4H144l2.87,6.72,2.88-6.72h1.05v8.4h-1.09v-5.85l-2.42,5.85h-.83l-2.43-5.85v5.85Z"/>
    <path class="cls-4" d="M152.26,310.6a3,3,0,0,1,.79-2,2.59,2.59,0,0,1,.9-.62,3,3,0,0,1,1.18-.23,3,3,0,0,1,1.19.23,2.73,2.73,0,0,1,.91.62,3,3,0,0,1,.79,2,2.9,2.9,0,0,1-.21,1.09,2.78,2.78,0,0,1-.58.91,2.91,2.91,0,0,1-.91.63,3,3,0,0,1-1.19.22,3,3,0,0,1-1.18-.22,2.79,2.79,0,0,1-1.48-1.54A2.9,2.9,0,0,1,152.26,310.6Zm1.05,0a2,2,0,0,0,.13.74,2.18,2.18,0,0,0,.36.61,1.81,1.81,0,0,0,.57.41,1.67,1.67,0,0,0,.76.16,1.84,1.84,0,0,0,1.34-.57,1.82,1.82,0,0,0,.37-.61,2,2,0,0,0,.13-.74,2,2,0,0,0-.13-.74,1.72,1.72,0,0,0-.37-.61,1.63,1.63,0,0,0-.58-.42,1.73,1.73,0,0,0-.76-.16,1.67,1.67,0,0,0-.76.16,1.69,1.69,0,0,0-.57.42,2,2,0,0,0-.36.61A2,2,0,0,0,153.31,310.6Z"/>
    <path class="cls-4" d="M159,310.6a3.15,3.15,0,0,1,.2-1.1,2.93,2.93,0,0,1,.58-.92,2.51,2.51,0,0,1,.88-.62,2.87,2.87,0,0,1,1.14-.23,2.31,2.31,0,0,1,1.12.29,1.94,1.94,0,0,1,.79.79v-3.89h1v8.4h-1v-.95a1.91,1.91,0,0,1-.78.79,2.24,2.24,0,0,1-1.13.29,2.86,2.86,0,0,1-1.14-.22,2.67,2.67,0,0,1-.88-.63,2.78,2.78,0,0,1-.58-.91A3.1,3.1,0,0,1,159,310.6Zm1,0a2.26,2.26,0,0,0,.13.74,2,2,0,0,0,.37.61,1.61,1.61,0,0,0,.57.41,1.65,1.65,0,0,0,.75.16,1.7,1.7,0,0,0,.76-.16,1.78,1.78,0,0,0,.59-.41,2,2,0,0,0,.37-.61,2,2,0,0,0,.13-.74,2,2,0,0,0-.13-.74,1.88,1.88,0,0,0-.37-.61,1.67,1.67,0,0,0-.59-.42,1.7,1.7,0,0,0-.76-.16,1.65,1.65,0,0,0-.75.16,1.51,1.51,0,0,0-.57.42,1.88,1.88,0,0,0-.37.61A2.26,2.26,0,0,0,160,310.6Z"/>
    <path class="cls-4" d="M166.16,310.6a3.49,3.49,0,0,1,.18-1.14,2.78,2.78,0,0,1,.53-.92,2.38,2.38,0,0,1,.84-.6,3,3,0,0,1,1.15-.21,2.72,2.72,0,0,1,1,.18,2.43,2.43,0,0,1,.8.53,2.35,2.35,0,0,1,.53.78,2.4,2.4,0,0,1,.2,1c0,.07,0,.17,0,.28a3.18,3.18,0,0,1,0,.4H167.2a2.27,2.27,0,0,0,.12.65,1.72,1.72,0,0,0,.3.55,1.4,1.4,0,0,0,.51.37,1.93,1.93,0,0,0,.77.14,1.44,1.44,0,0,0,.92-.26,1.41,1.41,0,0,0,.45-.61h1.06a2,2,0,0,1-.26.66,2,2,0,0,1-.51.55,2.67,2.67,0,0,1-.73.39,2.75,2.75,0,0,1-.93.14,3,3,0,0,1-1.21-.22,2.6,2.6,0,0,1-.86-.62,2.47,2.47,0,0,1-.5-.9A3.68,3.68,0,0,1,166.16,310.6Zm1.06-.52h3.15a1.47,1.47,0,0,0-1.53-1.56,1.66,1.66,0,0,0-1.16.41A1.54,1.54,0,0,0,167.22,310.08Z"/>
    <path class="cls-4" d="M172.88,313.32v-8.4h1.05v8.4Z"/>
    <path class="cls-4" d="M178.38,309.11a4.64,4.64,0,0,1,.3-1.65,4,4,0,0,1,.85-1.39,4,4,0,0,1,1.34-1,4,4,0,0,1,1.77-.37,4.75,4.75,0,0,1,1.62.25,3.86,3.86,0,0,1,1.22.66,3.39,3.39,0,0,1,.82,1,3.75,3.75,0,0,1,.43,1.23h-1.15a2.72,2.72,0,0,0-.32-.85,2.43,2.43,0,0,0-.59-.69,2.64,2.64,0,0,0-.83-.44,3.29,3.29,0,0,0-1.07-.17,3.18,3.18,0,0,0-1.38.29,3.07,3.07,0,0,0-1,.75,3.41,3.41,0,0,0-.64,1.09,3.65,3.65,0,0,0-.22,1.27,3.8,3.8,0,0,0,.23,1.31,3.19,3.19,0,0,0,.66,1.09,3.3,3.3,0,0,0,1.08.74,3.51,3.51,0,0,0,1.45.28,2.63,2.63,0,0,0,.84-.13,2.82,2.82,0,0,0,.76-.37,2.59,2.59,0,0,0,.61-.58,2.52,2.52,0,0,0,.39-.72h1.2a3.34,3.34,0,0,1-.51,1.1,3.59,3.59,0,0,1-.86.88,4.22,4.22,0,0,1-1.16.59,4.86,4.86,0,0,1-3.25-.15,4.21,4.21,0,0,1-1.39-1,3.92,3.92,0,0,1-.88-1.4A4.72,4.72,0,0,1,178.38,309.11Z"/>
    <path class="cls-4" d="M188.13,313.32v-8.4h1v3.93a2,2,0,0,1,.73-.82,2.26,2.26,0,0,1,1.19-.3,2.38,2.38,0,0,1,1,.18,1.58,1.58,0,0,1,.65.54,2.15,2.15,0,0,1,.33.7,4.19,4.19,0,0,1,.09,1v3.22h-1v-2.88a3.14,3.14,0,0,0-.07-.7,1.51,1.51,0,0,0-.24-.56,1.08,1.08,0,0,0-.42-.37,1.3,1.3,0,0,0-.65-.14,1.35,1.35,0,0,0-.69.16,1.33,1.33,0,0,0-.47.41,1.71,1.71,0,0,0-.29.59,2.26,2.26,0,0,0-.1.69v2.8Z"/>
    <path class="cls-4" d="M194.46,310.6a3,3,0,0,1,.21-1.1,3.09,3.09,0,0,1,.57-.92,2.55,2.55,0,0,1,.89-.62,2.8,2.8,0,0,1,1.14-.23,2.34,2.34,0,0,1,1.12.29,1.86,1.86,0,0,1,.78.79v-.94h1.05v5.45h-1.05v-.95a1.8,1.8,0,0,1-.78.79,2.2,2.2,0,0,1-1.12.29,2.79,2.79,0,0,1-1.14-.22,2.71,2.71,0,0,1-.89-.63,3,3,0,0,1-.78-2Zm1,0a2,2,0,0,0,.13.74,2.18,2.18,0,0,0,.36.61,1.81,1.81,0,0,0,.57.41,1.65,1.65,0,0,0,.75.16,1.84,1.84,0,0,0,1.35-.57,2,2,0,0,0,.37-.61,2,2,0,0,0,.13-.74,2,2,0,0,0-.13-.74,1.88,1.88,0,0,0-.37-.61,1.63,1.63,0,0,0-.58-.42,1.74,1.74,0,0,0-.77-.16,1.65,1.65,0,0,0-.75.16,1.69,1.69,0,0,0-.57.42,2,2,0,0,0-.36.61A2,2,0,0,0,195.51,310.6Z"/>
    <path class="cls-4" d="M202.07,313.32v-5.45h1v1a2,2,0,0,1,.73-.82,2.26,2.26,0,0,1,1.19-.3,2.38,2.38,0,0,1,1,.18,1.58,1.58,0,0,1,.65.54,2.15,2.15,0,0,1,.33.7,4.19,4.19,0,0,1,.09,1v3.22h-1v-2.88a3.14,3.14,0,0,0-.07-.7,1.51,1.51,0,0,0-.24-.56,1.08,1.08,0,0,0-.42-.37,1.3,1.3,0,0,0-.65-.14,1.35,1.35,0,0,0-.69.16,1.46,1.46,0,0,0-.48.41,1.89,1.89,0,0,0-.28.59,2.26,2.26,0,0,0-.1.69v2.8Z"/>
    <path class="cls-4" d="M208.4,310.6a3.15,3.15,0,0,1,.2-1.1,3.09,3.09,0,0,1,.57-.92A2.6,2.6,0,0,1,210,308a2.69,2.69,0,0,1,1.11-.23,2.46,2.46,0,0,1,1.16.29,2,2,0,0,1,.8.79v-.94h1v5.8a3.29,3.29,0,0,1-.2,1.24,2,2,0,0,1-.59.85,2.29,2.29,0,0,1-.93.48,4.63,4.63,0,0,1-1.24.15,3.29,3.29,0,0,1-1.19-.2,2.4,2.4,0,0,1-.83-.52,2.18,2.18,0,0,1-.5-.77,2.68,2.68,0,0,1-.2-.88h1a1.64,1.64,0,0,0,.13.54,1.32,1.32,0,0,0,.32.46,1.46,1.46,0,0,0,.53.31,2.2,2.2,0,0,0,.76.12,2.16,2.16,0,0,0,1.41-.42,1.67,1.67,0,0,0,.51-1.37v-1.29a2,2,0,0,1-.8.8,2.43,2.43,0,0,1-1.16.28,2.68,2.68,0,0,1-1.11-.22,2.63,2.63,0,0,1-.87-.63,2.92,2.92,0,0,1-.57-.91A3.06,3.06,0,0,1,208.4,310.6Zm1,0a2.25,2.25,0,0,0,.12.74,2.18,2.18,0,0,0,.36.61,1.72,1.72,0,0,0,.55.41,1.64,1.64,0,0,0,.74.16,1.85,1.85,0,0,0,.78-.16,1.94,1.94,0,0,0,.6-.41,1.93,1.93,0,0,0,.51-1.35,2,2,0,0,0-.13-.74,1.91,1.91,0,0,0-.38-.61,1.81,1.81,0,0,0-.6-.42,1.85,1.85,0,0,0-.78-.16,1.61,1.61,0,0,0-.74.16,1.52,1.52,0,0,0-.55.42,2,2,0,0,0-.36.61A2.25,2.25,0,0,0,209.45,310.6Z"/>
    <path class="cls-4" d="M215.56,310.6a3.49,3.49,0,0,1,.18-1.14,2.78,2.78,0,0,1,.53-.92,2.38,2.38,0,0,1,.84-.6,2.91,2.91,0,0,1,1.15-.21,2.72,2.72,0,0,1,1,.18,2.43,2.43,0,0,1,.8.53,2.35,2.35,0,0,1,.53.78,2.4,2.4,0,0,1,.2,1c0,.07,0,.17,0,.28a3.18,3.18,0,0,1,0,.4H216.6a2.27,2.27,0,0,0,.12.65,1.72,1.72,0,0,0,.3.55,1.4,1.4,0,0,0,.51.37,1.93,1.93,0,0,0,.77.14,1.44,1.44,0,0,0,.92-.26,1.41,1.41,0,0,0,.45-.61h1.06a2.22,2.22,0,0,1-.26.66,2,2,0,0,1-.51.55,2.67,2.67,0,0,1-.73.39,2.75,2.75,0,0,1-.93.14,3,3,0,0,1-1.21-.22,2.47,2.47,0,0,1-1.36-1.52A3.68,3.68,0,0,1,215.56,310.6Zm1.06-.52h3.15a1.47,1.47,0,0,0-1.53-1.56,1.66,1.66,0,0,0-1.16.41A1.54,1.54,0,0,0,216.62,310.08Z"/>
    <path class="cls-4" d="M221.84,311.49h1a1,1,0,0,0,.39.88,1.73,1.73,0,0,0,1,.25,1.39,1.39,0,0,0,.75-.18.68.68,0,0,0,.27-.6.52.52,0,0,0-.12-.36.91.91,0,0,0-.34-.25,5.12,5.12,0,0,0-.54-.21l-.74-.22-.58-.2a1.67,1.67,0,0,1-.47-.28,1.39,1.39,0,0,1-.31-.41,1.55,1.55,0,0,1-.11-.61,1.34,1.34,0,0,1,.16-.68,1.29,1.29,0,0,1,.44-.49,2,2,0,0,1,.67-.3,3.12,3.12,0,0,1,.82-.1,2.33,2.33,0,0,1,.81.13,2,2,0,0,1,.65.38,1.76,1.76,0,0,1,.43.58,1.64,1.64,0,0,1,.16.74h-.93a.92.92,0,0,0-.29-.74,1.28,1.28,0,0,0-.86-.26,1.35,1.35,0,0,0-.75.2.64.64,0,0,0-.31.56.6.6,0,0,0,.1.34.76.76,0,0,0,.31.23,3.35,3.35,0,0,0,.49.19l.67.21.62.2a2.22,2.22,0,0,1,.53.28,1.29,1.29,0,0,1,.36.41,1.35,1.35,0,0,1,.14.64,1.46,1.46,0,0,1-.16.71,1.34,1.34,0,0,1-.43.51,2,2,0,0,1-.66.31,3.38,3.38,0,0,1-1.71,0,2.22,2.22,0,0,1-.74-.36,1.78,1.78,0,0,1-.5-.62A1.84,1.84,0,0,1,221.84,311.49Z"/>
  </g>
  <g id="poly5-2" data-name="poly5">
    <path class="cls-4" d="M50.2,233a4.64,4.64,0,0,1,.3-1.65,4.11,4.11,0,0,1,.84-1.39,4.19,4.19,0,0,1,3.12-1.34,4.75,4.75,0,0,1,1.62.25,3.86,3.86,0,0,1,1.22.66,3.39,3.39,0,0,1,.82,1,4,4,0,0,1,.43,1.23H57.4a2.81,2.81,0,0,0-.32-.85,2.45,2.45,0,0,0-1.43-1.13,3.56,3.56,0,0,0-2.44.12,3,3,0,0,0-1,.75,3.41,3.41,0,0,0-.64,1.09,3.65,3.65,0,0,0-.22,1.27,3.58,3.58,0,0,0,.23,1.31,3.1,3.1,0,0,0,.66,1.09,3.19,3.19,0,0,0,1.08.74,3.47,3.47,0,0,0,1.45.28,2.63,2.63,0,0,0,.84-.13,2.82,2.82,0,0,0,.76-.37,2.4,2.4,0,0,0,.61-.58,2.52,2.52,0,0,0,.39-.72h1.2a3.34,3.34,0,0,1-.51,1.1,3.59,3.59,0,0,1-.86.88,4.37,4.37,0,0,1-1.16.59,4.86,4.86,0,0,1-3.25-.15,4.36,4.36,0,0,1-1.4-1,4.09,4.09,0,0,1-.87-1.39A4.81,4.81,0,0,1,50.2,233Z"/>
    <path class="cls-4" d="M59.5,234.47a3,3,0,0,1,.21-1.1,2.9,2.9,0,0,1,.57-.92,2.69,2.69,0,0,1,.89-.62,2.8,2.8,0,0,1,1.14-.23,2.34,2.34,0,0,1,1.12.29,1.91,1.91,0,0,1,.78.79v-.94h1.05v5.45H64.21v-.95a1.88,1.88,0,0,1-.78.8,2.31,2.31,0,0,1-1.12.29,2.8,2.8,0,0,1-1.14-.23,2.57,2.57,0,0,1-.89-.63,2.75,2.75,0,0,1-.57-.91A2.86,2.86,0,0,1,59.5,234.47Zm1,0a2,2,0,0,0,.14.74,2,2,0,0,0,.36.61,1.81,1.81,0,0,0,.57.41,1.65,1.65,0,0,0,.75.16,1.77,1.77,0,0,0,.77-.16,1.74,1.74,0,0,0,.58-.41,2,2,0,0,0,.37-.61,2,2,0,0,0,.13-.74,2,2,0,0,0-.13-.74,1.88,1.88,0,0,0-.37-.61,1.63,1.63,0,0,0-.58-.42,1.77,1.77,0,0,0-.77-.16,1.65,1.65,0,0,0-.75.16,1.69,1.69,0,0,0-.57.42,1.86,1.86,0,0,0-.36.61A2,2,0,0,0,60.54,234.47Z"/>
    <path class="cls-4" d="M67.11,240.14v-8.4h1v.94a2,2,0,0,1,.78-.79,2.28,2.28,0,0,1,1.12-.29,2.87,2.87,0,0,1,1.14.23,2.69,2.69,0,0,1,.89.62,3.09,3.09,0,0,1,.57.92,3,3,0,0,1,.21,1.1,2.86,2.86,0,0,1-.21,1.09,2.92,2.92,0,0,1-.57.91,2.57,2.57,0,0,1-.89.63,2.87,2.87,0,0,1-1.14.23,2.31,2.31,0,0,1-1.12-.29,2,2,0,0,1-.78-.8v3.9Zm1-5.67a2,2,0,0,0,.13.74,2,2,0,0,0,.37.61,1.78,1.78,0,0,0,.59.41,1.73,1.73,0,0,0,.76.16,1.64,1.64,0,0,0,.74-.16,1.61,1.61,0,0,0,.57-.41,2,2,0,0,0,.37-.61,2,2,0,0,0,.13-.74,2,2,0,0,0-.13-.74,1.88,1.88,0,0,0-.37-.61,1.51,1.51,0,0,0-.57-.42,1.64,1.64,0,0,0-.74-.16,1.79,1.79,0,0,0-1.35.58,1.88,1.88,0,0,0-.37.61A2,2,0,0,0,68.15,234.47Z"/>
    <path class="cls-4" d="M73.85,234.47a2.94,2.94,0,0,1,.2-1.1,3.09,3.09,0,0,1,.57-.92,2.69,2.69,0,0,1,.89-.62,2.8,2.8,0,0,1,1.14-.23,2.31,2.31,0,0,1,1.12.29,1.94,1.94,0,0,1,.79.79v-.94h1v5.45h-1v-.95a2,2,0,0,1-.79.8,2.28,2.28,0,0,1-1.12.29,2.8,2.8,0,0,1-1.14-.23,2.57,2.57,0,0,1-.89-.63,2.92,2.92,0,0,1-.57-.91A2.85,2.85,0,0,1,73.85,234.47Zm1,0a2,2,0,0,0,.13.74,2,2,0,0,0,.37.61,1.66,1.66,0,0,0,.56.41,1.85,1.85,0,0,0,2.1-.41,1.82,1.82,0,0,0,.37-.61,2,2,0,0,0,.14-.74,2,2,0,0,0-.14-.74,1.72,1.72,0,0,0-.37-.61,1.63,1.63,0,0,0-.58-.42,1.89,1.89,0,0,0-1.52,0,1.56,1.56,0,0,0-.56.42,1.88,1.88,0,0,0-.37.61A2,2,0,0,0,74.89,234.47Z"/>
    <path class="cls-4" d="M81.45,237.19v-8.4h1v3.89a2,2,0,0,1,.78-.79,2.31,2.31,0,0,1,1.12-.29,2.8,2.8,0,0,1,1.14.23,2.59,2.59,0,0,1,.89.62,2.74,2.74,0,0,1,.57.92,3,3,0,0,1,.21,1.1,2.86,2.86,0,0,1-.21,1.09,2.6,2.6,0,0,1-.57.91,2.48,2.48,0,0,1-.89.63,2.8,2.8,0,0,1-1.14.23,2.24,2.24,0,0,1-1.11-.29,2,2,0,0,1-.79-.8v.95Zm1-2.72a2,2,0,0,0,.14.74,1.82,1.82,0,0,0,.37.61,1.74,1.74,0,0,0,.58.41,1.86,1.86,0,0,0,1.51,0,1.81,1.81,0,0,0,.57-.41,2,2,0,0,0,.36-.61,2,2,0,0,0,.14-.74,2,2,0,0,0-.14-.74,1.86,1.86,0,0,0-.36-.61,1.69,1.69,0,0,0-.57-.42,1.86,1.86,0,0,0-1.51,0,1.63,1.63,0,0,0-.58.42,1.72,1.72,0,0,0-.37.61A2,2,0,0,0,82.49,234.47Z"/>
    <path class="cls-4" d="M88.32,229.68a.85.85,0,0,1,.24-.6.78.78,0,0,1,.59-.25.85.85,0,0,1,.85.85.76.76,0,0,1-.25.58.82.82,0,0,1-.6.25.84.84,0,0,1-.83-.83Zm.31,7.51v-5.45h1.05v5.45Z"/>
    <path class="cls-4" d="M91.55,237.19v-8.4h1v8.4Z"/>
    <path class="cls-4" d="M94.14,229.68a.85.85,0,0,1,.24-.6.78.78,0,0,1,.59-.25.85.85,0,0,1,.85.85.76.76,0,0,1-.25.58.82.82,0,0,1-.6.25.85.85,0,0,1-.83-.83Zm.32,7.51v-5.45h1v5.45Z"/>
    <path class="cls-4" d="M96.67,232.62v-.88h1v-1.83h1v1.83h1.42v.88H98.72v2.52a2.61,2.61,0,0,0,.07.63,1,1,0,0,0,.19.36.61.61,0,0,0,.28.16,2.05,2.05,0,0,0,.37,0H100l.34,0v.91l-.42.05-.52,0a2.9,2.9,0,0,1-.56,0,1.36,1.36,0,0,1-.56-.23,1.53,1.53,0,0,1-.43-.57,2.74,2.74,0,0,1-.17-1v-2.74Z"/>
    <path class="cls-4" d="M101.37,237.9h1a1.58,1.58,0,0,0,.44,1.11,1.47,1.47,0,0,0,1.07.37,2.09,2.09,0,0,0,.63-.08A1.12,1.12,0,0,0,105,239a1.37,1.37,0,0,0,.31-.5,2.57,2.57,0,0,0,.1-.79v-1.54a1.88,1.88,0,0,1-.72.81,2.24,2.24,0,0,1-1.19.31,2.48,2.48,0,0,1-1-.19,1.58,1.58,0,0,1-.65-.51,1.79,1.79,0,0,1-.32-.7,4.71,4.71,0,0,1-.09-1v-3.18h1v2.85a4.07,4.07,0,0,0,.06.73,1.62,1.62,0,0,0,.23.57,1.11,1.11,0,0,0,.43.37,1.6,1.6,0,0,0,.67.13,1.42,1.42,0,0,0,.68-.15,1.33,1.33,0,0,0,.47-.41,1.91,1.91,0,0,0,.29-.59,2.71,2.71,0,0,0,.09-.71v-2.79h1v6a2.47,2.47,0,0,1-.66,1.91,2.77,2.77,0,0,1-1.93.6,2.7,2.7,0,0,1-1.83-.58A2.27,2.27,0,0,1,101.37,237.9Z"/>
    <path class="cls-4" d="M65,248.87v-5.68h1.09v5.68a2,2,0,0,0,.13.74,2,2,0,0,0,.37.61,1.69,1.69,0,0,0,.57.42,1.64,1.64,0,0,0,.74.16,1.79,1.79,0,0,0,1.35-.58,2,2,0,0,0,.37-.61,2,2,0,0,0,.13-.74v-5.68h1.09v5.68a3.22,3.22,0,0,1-.2,1.12,2.79,2.79,0,0,1-.59.93,3.05,3.05,0,0,1-.93.63,3,3,0,0,1-1.22.23A2.81,2.81,0,0,1,65.21,250,3,3,0,0,1,65,248.87Z"/>
    <path class="cls-4" d="M72.64,254.54v-8.4h1v.94a1.86,1.86,0,0,1,.78-.79,2.25,2.25,0,0,1,1.12-.29,2.87,2.87,0,0,1,1.14.23,2.69,2.69,0,0,1,.89.62,3.09,3.09,0,0,1,.57.92,2.94,2.94,0,0,1,.2,1.1,2.85,2.85,0,0,1-.2,1.09,2.92,2.92,0,0,1-.57.91,2.57,2.57,0,0,1-.89.63,2.87,2.87,0,0,1-1.14.23,2.31,2.31,0,0,1-1.12-.29,1.88,1.88,0,0,1-.78-.8v3.9Zm1-5.67a2,2,0,0,0,.13.74,2,2,0,0,0,.37.61,1.78,1.78,0,0,0,.59.41,1.68,1.68,0,0,0,.75.16,1.65,1.65,0,0,0,.75-.16,1.61,1.61,0,0,0,.57-.41,2,2,0,0,0,.37-.61,2,2,0,0,0,.13-.74,2,2,0,0,0-.13-.74,1.88,1.88,0,0,0-.37-.61,1.51,1.51,0,0,0-.57-.42,1.65,1.65,0,0,0-.75-.16,1.79,1.79,0,0,0-1.34.58,1.88,1.88,0,0,0-.37.61A2,2,0,0,0,73.68,248.87Z"/>
    <path class="cls-4" d="M79.82,251.59v-8.4h1v8.4Z"/>
    <path class="cls-4" d="M82.41,244.08a.85.85,0,0,1,.24-.6.8.8,0,0,1,.6-.25.78.78,0,0,1,.59.25.83.83,0,0,1,.26.6.77.77,0,0,1-.26.58.82.82,0,0,1-1.18,0A.79.79,0,0,1,82.41,244.08Zm.32,7.51v-5.45h1v5.45Z"/>
    <path class="cls-4" d="M85,247v-.88h1.18v-.95a2.75,2.75,0,0,1,.19-1.15,1.43,1.43,0,0,1,.49-.62,1.49,1.49,0,0,1,.61-.26,4.07,4.07,0,0,1,.56,0,1.89,1.89,0,0,1,.44,0,1.41,1.41,0,0,1,.31.1v.89a1.74,1.74,0,0,0-.29-.07,1.67,1.67,0,0,0-.32,0,1.88,1.88,0,0,0-.34,0,.66.66,0,0,0-.3.12.68.68,0,0,0-.23.31,1.71,1.71,0,0,0-.08.58v1h1.56V247H87.18v4.57h-1V247Z"/>
    <path class="cls-4" d="M89.11,247v-.88h1v-1.83h1v1.83h1.41V247H91.16v2.52a2.68,2.68,0,0,0,.06.63,1,1,0,0,0,.19.36.66.66,0,0,0,.28.16,2.05,2.05,0,0,0,.37,0h.38l.33,0v.91l-.42,0-.52,0a2.74,2.74,0,0,1-.55,0,1.31,1.31,0,0,1-.56-.23,1.43,1.43,0,0,1-.43-.57,2.54,2.54,0,0,1-.18-1.05V247Z"/>
  </g>
  <g id="poly6-2" data-name="poly6">
    <path class="cls-4" d="M52.07,119.39V111h4.71v1H53.16v2.74h3.62v1H53.16v2.7h3.62v1Z"/>
    <path class="cls-4" d="M58.59,119.39v-5.45h1v1a1.84,1.84,0,0,1,.73-.81,2.24,2.24,0,0,1,1.19-.31,2.41,2.41,0,0,1,1,.19,1.54,1.54,0,0,1,.65.53,1.94,1.94,0,0,1,.32.7,3.67,3.67,0,0,1,.1,1v3.21h-1v-2.88a3.13,3.13,0,0,0-.08-.7,1.57,1.57,0,0,0-.23-.56,1.11,1.11,0,0,0-.43-.37,1.39,1.39,0,0,0-.65-.14,1.34,1.34,0,0,0-.68.16,1.46,1.46,0,0,0-.48.41,1.91,1.91,0,0,0-.29.59,2.69,2.69,0,0,0-.09.7v2.79Z"/>
    <path class="cls-4" d="M64.93,116.67a3.06,3.06,0,0,1,.2-1.09,3,3,0,0,1,.58-.93,2.65,2.65,0,0,1,.88-.62,2.87,2.87,0,0,1,1.14-.23,2.31,2.31,0,0,1,1.12.29,2,2,0,0,1,.79.8V111h1v8.4h-1v-1a1.94,1.94,0,0,1-.78.8,2.35,2.35,0,0,1-1.13.29,2.87,2.87,0,0,1-1.14-.23,2.65,2.65,0,0,1-.88-.62,2.93,2.93,0,0,1-.58-.92A3.06,3.06,0,0,1,64.93,116.67Zm1,0a2.08,2.08,0,0,0,.13.75,1.84,1.84,0,0,0,.37.6,1.76,1.76,0,0,0,.57.42,1.79,1.79,0,0,0,.75.15,1.84,1.84,0,0,0,.76-.15,2,2,0,0,0,.59-.42,1.84,1.84,0,0,0,.37-.6,2.32,2.32,0,0,0,.13-.75,2.26,2.26,0,0,0-.13-.74,2,2,0,0,0-.37-.61,1.81,1.81,0,0,0-.59-.42,1.7,1.7,0,0,0-.76-.16,1.65,1.65,0,0,0-.75.16,1.63,1.63,0,0,0-.57.42,2,2,0,0,0-.37.61A2,2,0,0,0,66,116.67Z"/>
    <path class="cls-4" d="M72,116.44v-.94h2.82v.94Z"/>
    <path class="cls-4" d="M75.36,114.82v-.88h1v-1.83h1v1.83h1.42v.88H77.41v2.52a2.49,2.49,0,0,0,.07.63.87.87,0,0,0,.19.36.53.53,0,0,0,.28.16,2,2,0,0,0,.37,0l.37,0a1.58,1.58,0,0,0,.34,0v.91a3.47,3.47,0,0,1-.42,0,4.52,4.52,0,0,1-.52,0,3.87,3.87,0,0,1-.56,0,1.26,1.26,0,0,1-.56-.24,1.38,1.38,0,0,1-.43-.57,2.67,2.67,0,0,1-.17-1v-2.74Z"/>
    <path class="cls-4" d="M79.65,116.67a3.06,3.06,0,0,1,.2-1.09,3,3,0,0,1,.58-.93,2.73,2.73,0,0,1,.9-.62,3.17,3.17,0,0,1,2.37,0,2.77,2.77,0,0,1,.91.62,3,3,0,0,1,.59.93,3.07,3.07,0,0,1,0,2.18,3,3,0,0,1-.59.92,2.77,2.77,0,0,1-.91.62,3,3,0,0,1-1.19.23,3,3,0,0,1-1.18-.23,2.73,2.73,0,0,1-.9-.62,2.93,2.93,0,0,1-.58-.92A3.06,3.06,0,0,1,79.65,116.67Zm1,0a2.08,2.08,0,0,0,.13.75,1.89,1.89,0,0,0,.93,1,2,2,0,0,0,1.52,0,1.92,1.92,0,0,0,.58-.42,1.86,1.86,0,0,0,.38-.6,2.32,2.32,0,0,0,.13-.75,2.26,2.26,0,0,0-.13-.74,2,2,0,0,0-.38-.61,1.77,1.77,0,0,0-.58-.42,1.89,1.89,0,0,0-1.52,0,1.68,1.68,0,0,0-.56.42,2,2,0,0,0-.37.61A2,2,0,0,0,80.69,116.67Z"/>
    <path class="cls-4" d="M86.23,116.44v-.94H89v.94Z"/>
    <path class="cls-4" d="M89.91,116.67a3.49,3.49,0,0,1,.18-1.14,2.73,2.73,0,0,1,.53-.91,2.23,2.23,0,0,1,.84-.6,3,3,0,0,1,1.15-.22,2.72,2.72,0,0,1,1,.19,2.31,2.31,0,0,1,.8.52,2.24,2.24,0,0,1,.53.79,2.36,2.36,0,0,1,.2,1c0,.08,0,.17,0,.29a3.22,3.22,0,0,1,0,.39H91a2,2,0,0,0,.11.66,1.78,1.78,0,0,0,.3.54,1.3,1.3,0,0,0,.51.37,1.93,1.93,0,0,0,.77.14,1.33,1.33,0,0,0,1.37-.86h1.06a1.93,1.93,0,0,1-.26.65,2.08,2.08,0,0,1-.51.56,2.65,2.65,0,0,1-.73.38,2.75,2.75,0,0,1-.93.15,3,3,0,0,1-1.21-.23,2.44,2.44,0,0,1-.85-.61,2.47,2.47,0,0,1-.51-.91A3.68,3.68,0,0,1,89.91,116.67Zm1.06-.52h3.15a1.51,1.51,0,0,0-.44-1.14,1.49,1.49,0,0,0-1.09-.41,1.65,1.65,0,0,0-1.16.4A1.54,1.54,0,0,0,91,116.15Z"/>
    <path class="cls-4" d="M96.63,119.39v-5.45h1.05v1a1.84,1.84,0,0,1,.73-.81,2.24,2.24,0,0,1,1.19-.31,2.41,2.41,0,0,1,1,.19,1.54,1.54,0,0,1,.65.53,1.94,1.94,0,0,1,.32.7,3.67,3.67,0,0,1,.1,1v3.21h-1v-2.88a3.13,3.13,0,0,0-.08-.7,1.57,1.57,0,0,0-.23-.56,1.11,1.11,0,0,0-.43-.37,1.39,1.39,0,0,0-.65-.14,1.34,1.34,0,0,0-.68.16,1.46,1.46,0,0,0-.48.41,1.91,1.91,0,0,0-.29.59,2.69,2.69,0,0,0-.09.7v2.79Z"/>
    <path class="cls-4" d="M103,116.67a3.06,3.06,0,0,1,.2-1.09,3,3,0,0,1,.58-.93,2.65,2.65,0,0,1,.88-.62,2.87,2.87,0,0,1,1.14-.23,2.31,2.31,0,0,1,1.12.29,2,2,0,0,1,.79.8V111h1v8.4h-1v-1a1.9,1.9,0,0,1-.79.8,2.28,2.28,0,0,1-1.12.29,2.87,2.87,0,0,1-1.14-.23,2.65,2.65,0,0,1-.88-.62,2.93,2.93,0,0,1-.58-.92A3.06,3.06,0,0,1,103,116.67Zm1,0a2.08,2.08,0,0,0,.13.75,1.89,1.89,0,0,0,.93,1,2,2,0,0,0,1.52,0,2,2,0,0,0,.59-.42,1.84,1.84,0,0,0,.37-.6,2.32,2.32,0,0,0,.13-.75,2.26,2.26,0,0,0-.13-.74,2,2,0,0,0-.37-.61,1.81,1.81,0,0,0-.59-.42,1.89,1.89,0,0,0-1.52,0,1.68,1.68,0,0,0-.56.42,2,2,0,0,0-.37.61A2,2,0,0,0,104,116.67Z"/>
    <path class="cls-4" d="M58.66,131.12h1.09a1.95,1.95,0,0,0,3.1,1.5,1.27,1.27,0,0,0,.47-1.05,1.31,1.31,0,0,0-.14-.63,1.42,1.42,0,0,0-.38-.43,2.36,2.36,0,0,0-.52-.28c-.18-.06-.37-.13-.56-.18-.38-.12-.73-.25-1.07-.37a4.07,4.07,0,0,1-.88-.47,2,2,0,0,1-.59-.71,2.33,2.33,0,0,1-.22-1,2.14,2.14,0,0,1,.2-.92,2.09,2.09,0,0,1,.55-.7,2.31,2.31,0,0,1,.83-.46,3.15,3.15,0,0,1,1-.17,3,3,0,0,1,1.05.19,2.48,2.48,0,0,1,.84.52,2.58,2.58,0,0,1,.55.81,2.77,2.77,0,0,1,.2,1H63.13a1.71,1.71,0,0,0-.41-1.15,1.45,1.45,0,0,0-1.12-.43,1.78,1.78,0,0,0-1.12.33,1.1,1.1,0,0,0-.43.93,1.17,1.17,0,0,0,.48,1,2.69,2.69,0,0,0,.5.28,5.66,5.66,0,0,0,.58.2c.33.1.65.22,1,.35a4.13,4.13,0,0,1,.91.48,2.32,2.32,0,0,1,.66.7,1.92,1.92,0,0,1,.25,1,2.51,2.51,0,0,1-.22,1.08,2.31,2.31,0,0,1-.61.8,2.59,2.59,0,0,1-.9.48,3.59,3.59,0,0,1-1.11.17,3.25,3.25,0,0,1-1.14-.2,2.64,2.64,0,0,1-.92-.57,2.54,2.54,0,0,1-.62-.9A3,3,0,0,1,58.66,131.12Z"/>
    <path class="cls-4" d="M65.49,131.07a3.49,3.49,0,0,1,.18-1.14,2.57,2.57,0,0,1,.53-.91,2.15,2.15,0,0,1,.84-.6,2.91,2.91,0,0,1,1.15-.22,2.72,2.72,0,0,1,1,.19,2.38,2.38,0,0,1,1.33,1.31,2.36,2.36,0,0,1,.2,1c0,.08,0,.17,0,.29a3.22,3.22,0,0,1,0,.39H66.53a2.34,2.34,0,0,0,.12.66,1.78,1.78,0,0,0,.3.54,1.3,1.3,0,0,0,.51.37,1.88,1.88,0,0,0,.76.14,1.34,1.34,0,0,0,1.38-.86h1.06a2.16,2.16,0,0,1-.26.65,2.08,2.08,0,0,1-.51.56,2.65,2.65,0,0,1-.73.38,2.77,2.77,0,0,1-.94.15,3,3,0,0,1-1.2-.23,2.48,2.48,0,0,1-.86-.61,2.6,2.6,0,0,1-.5-.91A3.68,3.68,0,0,1,65.49,131.07Zm1.06-.52H69.7A1.47,1.47,0,0,0,68.17,129a1.66,1.66,0,0,0-1.16.41A1.54,1.54,0,0,0,66.55,130.55Z"/>
    <path class="cls-4" d="M71.79,131.07A3.52,3.52,0,0,1,72,130a2.73,2.73,0,0,1,.52-.91,2.5,2.5,0,0,1,.85-.65,2.72,2.72,0,0,1,1.17-.24,3.24,3.24,0,0,1,1.14.19,2.34,2.34,0,0,1,.78.48,1.86,1.86,0,0,1,.46.68,2.36,2.36,0,0,1,.2.78H76a1.44,1.44,0,0,0-.4-.85,1.9,1.9,0,0,0-1.85-.18,1.48,1.48,0,0,0-.53.43,1.87,1.87,0,0,0-.32.61,2.58,2.58,0,0,0-.11.73,2.86,2.86,0,0,0,.1.73,1.78,1.78,0,0,0,.32.61,1.67,1.67,0,0,0,.55.43,1.87,1.87,0,0,0,.78.15,1.49,1.49,0,0,0,1-.29,1.52,1.52,0,0,0,.46-.78h1a2.29,2.29,0,0,1-.25.79,1.92,1.92,0,0,1-.51.63,2.49,2.49,0,0,1-.77.43,3.13,3.13,0,0,1-1,.16,2.66,2.66,0,0,1-1.17-.24,2.62,2.62,0,0,1-.86-.64,2.73,2.73,0,0,1-.52-.91A3.52,3.52,0,0,1,71.79,131.07Z"/>
    <path class="cls-4" d="M78.45,131.56v-3.22h1v2.88a3.17,3.17,0,0,0,.07.71,1.53,1.53,0,0,0,.24.55,1,1,0,0,0,.42.37,1.24,1.24,0,0,0,.64.14,1.47,1.47,0,0,0,.69-.15,1.26,1.26,0,0,0,.48-.4,1.76,1.76,0,0,0,.29-.6,2.34,2.34,0,0,0,.1-.71v-2.79h1v5.45h-1v-1a1.87,1.87,0,0,1-.74.81,2.14,2.14,0,0,1-1.18.31,2.33,2.33,0,0,1-1-.19,1.54,1.54,0,0,1-.65-.52,1.79,1.79,0,0,1-.32-.7A4.35,4.35,0,0,1,78.45,131.56Z"/>
    <path class="cls-4" d="M85.34,133.79v-5.45h1v1.07a1.77,1.77,0,0,1,.73-.83,2,2,0,0,1,1.08-.32,1.54,1.54,0,0,1,.52.08v1l-.27-.05h-.25a1.58,1.58,0,0,0-1.36.59,2.49,2.49,0,0,0-.45,1.56v2.39Z"/>
    <path class="cls-4" d="M89.4,126.28a.85.85,0,0,1,.24-.6.8.8,0,0,1,.59-.25.85.85,0,0,1,.85.85.82.82,0,0,1-.25.59.85.85,0,0,1-.6.24.82.82,0,0,1-.83-.83Zm.31,7.51v-5.45h1.05v5.45Z"/>
    <path class="cls-4" d="M91.93,129.22v-.88h1v-1.83h1v1.83H95.4v.88H94v2.52a2.1,2.1,0,0,0,.07.63.76.76,0,0,0,.18.36.57.57,0,0,0,.28.16,2,2,0,0,0,.37,0l.38,0a1.42,1.42,0,0,0,.33,0v.91a3.23,3.23,0,0,1-.42.05,4.43,4.43,0,0,1-.52,0,3.65,3.65,0,0,1-.55,0,1.21,1.21,0,0,1-.56-.24,1.3,1.3,0,0,1-.43-.57,2.5,2.5,0,0,1-.17-1v-2.74Z"/>
    <path class="cls-4" d="M96.62,134.5h1a1.67,1.67,0,0,0,.44,1.12,1.54,1.54,0,0,0,1.08.37,2.33,2.33,0,0,0,.62-.08,1.25,1.25,0,0,0,.48-.27,1.1,1.1,0,0,0,.31-.5,2.5,2.5,0,0,0,.11-.79v-1.54a1.84,1.84,0,0,1-.73.81,2.12,2.12,0,0,1-1.18.31,2.45,2.45,0,0,1-1-.18,1.7,1.7,0,0,1-.66-.52,1.94,1.94,0,0,1-.32-.7,5.45,5.45,0,0,1-.08-1v-3.19h1v2.86a3.26,3.26,0,0,0,.07.72,1.46,1.46,0,0,0,.23.57,1,1,0,0,0,.42.37,1.48,1.48,0,0,0,.67.13,1.47,1.47,0,0,0,.69-.15,1.39,1.39,0,0,0,.47-.4,2,2,0,0,0,.28-.6,2.34,2.34,0,0,0,.1-.71v-2.79h1v6a2.45,2.45,0,0,1-.66,1.9,2.77,2.77,0,0,1-1.93.6,2.7,2.7,0,0,1-1.83-.58A2.3,2.3,0,0,1,96.62,134.5Z"/>
  </g>
</svg>
