<svg id="Lag_1" data-name="Lag 1" xmlns="http://www.w3.org/2000/svg" xmlns:xlink="http://www.w3.org/1999/xlink" viewBox="0 0 41.58 38.12"><defs><style>.cls-1{fill:none;}.cls-2{clip-path:url(#clip-path);}.cls-3{fill:#1d1d1b;}</style><clipPath id="clip-path"><rect class="cls-1" width="41.58" height="38.11"/></clipPath></defs><g class="cls-2"><path class="cls-3" d="M12.13,12.13a5.2,5.2,0,1,1-5.2-5.2,5.2,5.2,0,0,1,5.2,5.2M20.79,0A5.2,5.2,0,1,0,26,5.2,5.2,5.2,0,0,0,20.79,0M34.65,6.93a5.2,5.2,0,1,0,5.2,5.2,5.2,5.2,0,0,0-5.2-5.2m0,10.4a6.93,6.93,0,0,0-6.93,6.93V17.33a6.93,6.93,0,0,0-13.86,0v6.93A6.93,6.93,0,0,0,0,24.26v6.92H41.58V24.26a6.93,6.93,0,0,0-6.93-6.93m6.93,17.32H0v3.47H41.58Z"/></g></svg>