<?xml version="1.0" encoding="utf-8"?>
<!-- Generator: Adobe Illustrator 23.0.2, SVG Export Plug-In . SVG Version: 6.00 Build 0)  -->
<svg version="1.1" id="Layer_1" xmlns="http://www.w3.org/2000/svg" xmlns:xlink="http://www.w3.org/1999/xlink" x="0px" y="0px"
	 viewBox="0 0 800 90" style="enable-background:new 0 0 800 90;" xml:space="preserve">
<style type="text/css">
	.st0{fill:#818284;stroke:#818284;stroke-width:10;stroke-miterlimit:10;}
	.st1{fill:#FFED00;}
	.st2{fill:#818284;}
	.st3{display:none;}
	.st4{display:inline;}
	.st5{display:inline;stroke:#000000;stroke-width:3;stroke-miterlimit:10;}
</style>
<line class="st0" x1="155" y1="44.9" x2="398.4" y2="44.9"/>
<line class="st0" x1="400" y1="44.9" x2="643.4" y2="44.9"/>
<circle class="st1" cx="157.7" cy="44.9" r="40.7"/>
<circle class="st2" cx="404.5" cy="44.7" r="35.9"/>
<g id="nmb1">
	<path d="M146.8,38.5v-6.1c1.6,0,3-0.1,4.1-0.3c1.1-0.2,1.9-0.6,2.5-1.1s1-1.1,1.2-1.8s0.3-1.6,0.3-2.6h7.4v35h-8.2V38.5H146.8z"/>
</g>
<g id="nmb2" class="st3">
	<path class="st4" d="M393,61.6c0-2.8,0.2-5.2,0.7-7.1c0.4-1.9,1.1-3.6,1.9-4.9c0.8-1.3,1.8-2.5,2.9-3.4c1.1-0.9,2.4-1.8,3.7-2.6
		c1-0.6,2-1.2,2.9-1.7c0.9-0.6,1.7-1.1,2.3-1.7c0.7-0.6,1.2-1.2,1.6-1.9c0.4-0.7,0.6-1.5,0.6-2.4c0-1.4-0.4-2.4-1.1-3
		c-0.8-0.6-1.7-0.9-2.9-0.9c-1.3,0-2.3,0.4-3.2,1.2c-0.8,0.8-1.3,2.1-1.3,3.9h-8.1c0-1.6,0.3-3.1,0.8-4.4c0.6-1.4,1.4-2.6,2.4-3.6
		c1.1-1,2.4-1.8,3.9-2.3c1.5-0.6,3.3-0.8,5.3-0.8c1.6,0,3.1,0.2,4.6,0.6c1.5,0.4,2.7,1,3.8,1.9c1.1,0.8,2,1.9,2.6,3.3
		c0.6,1.4,1,2.9,1,4.8c0,1.5-0.3,2.8-1,4c-0.6,1.2-1.4,2.3-2.3,3.2s-1.9,1.8-3,2.5c-1.1,0.7-2,1.3-2.9,1.8c-1.2,0.8-2.2,1.5-3,2.1
		s-1.4,1.1-1.9,1.6s-0.8,1-1,1.6c-0.2,0.5-0.3,1.2-0.3,1.9h15v6.5H393z"/>
</g>
<g id="check1" class="st3">
	
		<rect x="160.9" y="23.3" transform="matrix(0.7407 0.6718 -0.6718 0.7407 72.6618 -98.4118)" class="st5" width="5.9" height="43.2"/>
	
		<rect x="141.4" y="41.2" transform="matrix(-0.6718 0.7407 -0.7407 -0.6718 280.2235 -19.238)" class="st5" width="5.9" height="22.5"/>
</g>
<g id="check2" class="st3">
	
		<rect x="407.9" y="23.3" transform="matrix(0.7407 0.6718 -0.6718 0.7407 136.7098 -264.3562)" class="st5" width="5.9" height="43.2"/>
	
		<rect x="388.4" y="41.2" transform="matrix(-0.6718 0.7407 -0.7407 -0.6718 693.1679 -202.1901)" class="st5" width="5.9" height="22.5"/>
</g>
<circle class="st2" cx="647.1" cy="44.7" r="35.9"/>
<g id="nmb3" class="st3">
	<path class="st4" d="M633.3,49.9h8.1c0,1.9,0.5,3.4,1.5,4.4c1,1,2.2,1.6,3.8,1.6c1.5,0,2.6-0.5,3.5-1.4s1.2-2,1.2-3.2
		c0-1.5-0.4-2.6-1.1-3.5c-0.8-0.9-2.1-1.3-4-1.3H643v-6.1h3.1c1.8,0,3-0.4,3.7-1.3c0.6-0.8,1-1.9,1-3.2c0-1.3-0.4-2.3-1.1-3
		c-0.7-0.6-1.7-0.9-2.9-0.9c-1.7,0-2.9,0.5-3.5,1.4c-0.6,0.9-0.9,2.2-0.9,3.7h-8.1c0-1.5,0.2-2.9,0.7-4.3c0.5-1.4,1.2-2.5,2.2-3.6
		c1-1,2.3-1.8,3.8-2.4c1.5-0.6,3.4-0.9,5.6-0.9c1.6,0,3.1,0.2,4.6,0.6c1.5,0.4,2.8,1,3.9,1.8s2,1.8,2.6,3.1c0.7,1.2,1,2.7,1,4.3
		c0,2-0.5,3.6-1.5,5c-1,1.4-2.2,2.3-3.6,2.8c0.8,0.3,1.6,0.7,2.3,1.2c0.7,0.5,1.3,1.1,1.8,1.8c0.5,0.7,0.9,1.5,1.3,2.4
		c0.3,0.9,0.5,1.9,0.5,3c0,1.7-0.3,3.1-1,4.4c-0.7,1.3-1.6,2.4-2.8,3.3c-1.2,0.9-2.5,1.6-4,2.1c-1.5,0.5-3.1,0.7-4.8,0.7
		c-2.2,0-4.1-0.3-5.7-0.9s-3.1-1.5-4.2-2.6c-1.2-1.1-2-2.4-2.6-4S633.3,51.7,633.3,49.9z"/>
</g>
<g id="check3" class="st3">
	
		<rect x="649.9" y="23.3" transform="matrix(0.7407 0.6718 -0.6718 0.7407 199.4612 -426.9414)" class="st5" width="5.9" height="43.2"/>
	
		<rect x="630.4" y="41.2" transform="matrix(-0.6718 0.7407 -0.7407 -0.6718 1097.7531 -381.4387)" class="st5" width="5.9" height="22.5"/>
</g>
</svg>
